<?xml version="1.0" encoding="UTF-8" standalone="no"?>
<!DOCTYPE svg PUBLIC "-//W3C//DTD SVG 1.1//EN"
 "http://www.w3.org/Graphics/SVG/1.1/DTD/svg11.dtd">
<!-- Generated by graphviz version 2.38.0 (20140413.2041)
 -->
<!-- Title: G Pages: 1 -->
<svg width="174pt" height="133pt"
 viewBox="0.00 0.00 173.50 133.00" xmlns="http://www.w3.org/2000/svg" xmlns:xlink="http://www.w3.org/1999/xlink">
<g id="graph0" class="graph" transform="scale(1 1) rotate(0) translate(4 129)">
<title>G</title>
<polygon fill="white" stroke="none" points="-4,4 -4,-129 169.5,-129 169.5,4 -4,4"/>
<!-- java.awt.geom.Path2D.Double -->
<g id="node1" class="node"><title>java.awt.geom.Path2D.Double</title>
<g id="a_node1"><a xlink:href="../../../java/awt/geom/Double.html" xlink:title="java.awt.geom.Path2D.Double">
<text text-anchor="middle" x="35.5" y="-17.4" font-family="DejaVuSans" font-size="12.00" fill="#e76f00">Double</text>
</a>
</g>
</g>
<!-- java.awt.geom.Path2D -->
<g id="node2" class="node"><title>java.awt.geom.Path2D</title>
<g id="a_node2"><a xlink:href="../../../java/awt/geom/Path2D.html" xlink:title="java.awt.geom.Path2D">
<text text-anchor="middle" x="85.5" y="-101.4" font-family="DejaVuSans" font-size="12.00" fill="#e76f00">Path2D</text>
</a>
</g>
</g>
<!-- java.awt.geom.Path2D.Double&#45;&gt;java.awt.geom.Path2D -->
<g id="edge1" class="edge"><title>java.awt.geom.Path2D.Double&#45;&gt;java.awt.geom.Path2D</title>
<path fill="none" stroke="#999999" stroke-width="2" d="M47.6036,-41.3499C53.8066,-51.5229 61.4683,-64.088 68.2757,-75.2522"/>
<polygon fill="#999999" stroke="#999999" stroke-width="2" points="73.5079,-83.8329 64.4596,-77.6377 70.4779,-79.8242 67.8748,-75.5552 68.3017,-75.2949 68.7286,-75.0346 71.3317,-79.3036 72.1438,-72.9522 73.5079,-83.8329 73.5079,-83.8329"/>
</g>
<!-- java.awt.geom.Path2D.Float -->
<g id="node3" class="node"><title>java.awt.geom.Path2D.Float</title>
<g id="a_node3"><a xlink:href="../../../java/awt/geom/Float.html" xlink:title="java.awt.geom.Path2D.Float">
<text text-anchor="middle" x="136.5" y="-17.4" font-family="DejaVuSans" font-size="12.00" fill="#e76f00">Float</text>
</a>
</g>
</g>
<!-- java.awt.geom.Path2D.Float&#45;&gt;java.awt.geom.Path2D -->
<g id="edge2" class="edge"><title>java.awt.geom.Path2D.Float&#45;&gt;java.awt.geom.Path2D</title>
<path fill="none" stroke="#999999" stroke-width="2" d="M124.154,-41.3499C117.827,-51.5229 110.012,-64.088 103.069,-75.2522"/>
<polygon fill="#999999" stroke="#999999" stroke-width="2" points="97.732,-83.8329 99.1922,-72.9646 99.9481,-79.323 102.589,-75.0772 103.013,-75.3413 103.438,-75.6053 100.797,-79.8511 106.835,-77.7179 97.732,-83.8329 97.732,-83.8329"/>
</g>
</g>
</svg>
