<?xml version="1.0" encoding="UTF-8" standalone="no"?>
<!DOCTYPE svg PUBLIC "-//W3C//DTD SVG 1.1//EN"
 "http://www.w3.org/Graphics/SVG/1.1/DTD/svg11.dtd">
<!-- Generated by graphviz version 2.38.0 (20140413.2041)
 -->
<!-- Title: G Pages: 1 -->
<svg width="1149pt" height="217pt"
 viewBox="0.00 0.00 1148.50 217.00" xmlns="http://www.w3.org/2000/svg" xmlns:xlink="http://www.w3.org/1999/xlink">
<g id="graph0" class="graph" transform="scale(1 1) rotate(0) translate(4 213)">
<title>G</title>
<polygon fill="white" stroke="none" points="-4,4 -4,-213 1144.5,-213 1144.5,4 -4,4"/>
<!-- java.lang.constant.ClassDesc -->
<g id="node1" class="node"><title>java.lang.constant.ClassDesc</title>
<g id="a_node1"><a xlink:href="../../../java/lang/constant/ClassDesc.html" xlink:title="java.lang.constant.ClassDesc">
<text text-anchor="middle" x="44.5" y="-101.4" font-family="DejaVuSans" font-size="12.00" fill="#e76f00">ClassDesc</text>
</a>
</g>
</g>
<!-- java.lang.constant.ConstantDesc -->
<g id="node2" class="node"><title>java.lang.constant.ConstantDesc</title>
<g id="a_node2"><a xlink:href="../../../java/lang/constant/ConstantDesc.html" xlink:title="java.lang.constant.ConstantDesc">
<text text-anchor="middle" x="662.5" y="-185.4" font-family="DejaVuSans" font-size="12.00" fill="#e76f00">ConstantDesc</text>
</a>
</g>
</g>
<!-- java.lang.constant.ClassDesc&#45;&gt;java.lang.constant.ConstantDesc -->
<g id="edge1" class="edge"><title>java.lang.constant.ClassDesc&#45;&gt;java.lang.constant.ConstantDesc</title>
<path fill="none" stroke="#999999" stroke-width="2" d="M89.2672,-120.697C95.0221,-122.32 100.87,-123.81 106.5,-125 281.248,-161.941 491.81,-178.059 596.584,-184.209"/>
<polygon fill="#999999" stroke="#999999" stroke-width="2" points="606.693,-184.791 596.451,-188.709 601.673,-185.003 596.681,-184.716 596.71,-184.216 596.739,-183.717 601.73,-184.004 596.968,-179.724 606.693,-184.791 606.693,-184.791"/>
</g>
<!-- java.lang.constant.MethodHandleDesc -->
<g id="node3" class="node"><title>java.lang.constant.MethodHandleDesc</title>
<g id="a_node3"><a xlink:href="../../../java/lang/constant/MethodHandleDesc.html" xlink:title="java.lang.constant.MethodHandleDesc">
<text text-anchor="middle" x="197.5" y="-101.4" font-family="DejaVuSans" font-size="12.00" fill="#e76f00">MethodHandleDesc</text>
</a>
</g>
</g>
<!-- java.lang.constant.MethodHandleDesc&#45;&gt;java.lang.constant.ConstantDesc -->
<g id="edge2" class="edge"><title>java.lang.constant.MethodHandleDesc&#45;&gt;java.lang.constant.ConstantDesc</title>
<path fill="none" stroke="#999999" stroke-width="2" d="M270.137,-121.553C276.005,-122.753 281.847,-123.917 287.5,-125 395.381,-145.665 521.478,-165.875 596.515,-177.489"/>
<polygon fill="#999999" stroke="#999999" stroke-width="2" points="606.757,-179.069 596.187,-181.991 601.739,-178.801 596.798,-178.038 596.874,-177.544 596.95,-177.05 601.892,-177.813 597.56,-173.097 606.757,-179.069 606.757,-179.069"/>
</g>
<!-- java.lang.constant.DirectMethodHandleDesc -->
<g id="node4" class="node"><title>java.lang.constant.DirectMethodHandleDesc</title>
<g id="a_node4"><a xlink:href="../../../java/lang/constant/DirectMethodHandleDesc.html" xlink:title="java.lang.constant.DirectMethodHandleDesc">
<text text-anchor="middle" x="197.5" y="-17.4" font-family="DejaVuSans" font-size="12.00" fill="#e76f00">DirectMethodHandleDesc</text>
</a>
</g>
</g>
<!-- java.lang.constant.DirectMethodHandleDesc&#45;&gt;java.lang.constant.MethodHandleDesc -->
<g id="edge3" class="edge"><title>java.lang.constant.DirectMethodHandleDesc&#45;&gt;java.lang.constant.MethodHandleDesc</title>
<path fill="none" stroke="#999999" stroke-width="2" d="M197.5,-41.3499C197.5,-51.0192 197.5,-62.8498 197.5,-73.5843"/>
<polygon fill="#999999" stroke="#999999" stroke-width="2" points="197.5,-83.8329 193,-73.8328 197,-78.8329 197,-73.8329 197.5,-73.8329 198,-73.8329 198,-78.8329 202,-73.8329 197.5,-83.8329 197.5,-83.8329"/>
</g>
<!-- java.lang.constant.MethodTypeDesc -->
<g id="node5" class="node"><title>java.lang.constant.MethodTypeDesc</title>
<g id="a_node5"><a xlink:href="../../../java/lang/constant/MethodTypeDesc.html" xlink:title="java.lang.constant.MethodTypeDesc">
<text text-anchor="middle" x="371.5" y="-101.4" font-family="DejaVuSans" font-size="12.00" fill="#e76f00">MethodTypeDesc</text>
</a>
</g>
</g>
<!-- java.lang.constant.MethodTypeDesc&#45;&gt;java.lang.constant.ConstantDesc -->
<g id="edge4" class="edge"><title>java.lang.constant.MethodTypeDesc&#45;&gt;java.lang.constant.ConstantDesc</title>
<path fill="none" stroke="#999999" stroke-width="2" d="M437.169,-124.005C484.901,-137.455 549.236,-155.584 596.942,-169.027"/>
<polygon fill="#999999" stroke="#999999" stroke-width="2" points="606.858,-171.821 596.012,-173.44 601.91,-170.946 597.097,-169.59 597.233,-169.109 597.369,-168.627 602.181,-169.983 598.454,-164.777 606.858,-171.821 606.858,-171.821"/>
</g>
<!-- java.lang.Double -->
<g id="node6" class="node"><title>java.lang.Double</title>
<g id="a_node6"><a xlink:href="../../../java/lang/Double.html" xlink:title="java.lang.Double">
<text text-anchor="middle" x="508.5" y="-101.4" font-family="DejaVuSans" font-size="12.00" fill="#e76f00">Double</text>
</a>
</g>
</g>
<!-- java.lang.Double&#45;&gt;java.lang.constant.ConstantDesc -->
<g id="edge5" class="edge"><title>java.lang.Double&#45;&gt;java.lang.constant.ConstantDesc</title>
<path fill="none" stroke="#999999" stroke-width="2" d="M544.218,-124.519C565.789,-136.005 593.498,-150.758 616.673,-163.099"/>
<polygon fill="#999999" stroke="#999999" stroke-width="2" points="625.638,-167.872 614.696,-167.144 620.989,-165.963 616.576,-163.613 616.811,-163.172 617.046,-162.731 621.459,-165.081 618.926,-159.2 625.638,-167.872 625.638,-167.872"/>
</g>
<!-- java.lang.constant.DynamicConstantDesc -->
<g id="node7" class="node"><title>java.lang.constant.DynamicConstantDesc</title>
<g id="a_node7"><a xlink:href="../../../java/lang/constant/DynamicConstantDesc.html" xlink:title="java.lang.constant.DynamicConstantDesc">
<text text-anchor="middle" x="662.5" y="-101.4" font-family="DejaVuSans" font-size="12.00" fill="#e76f00">DynamicConstantDesc</text>
</a>
</g>
</g>
<!-- java.lang.constant.DynamicConstantDesc&#45;&gt;java.lang.constant.ConstantDesc -->
<g id="edge6" class="edge"><title>java.lang.constant.DynamicConstantDesc&#45;&gt;java.lang.constant.ConstantDesc</title>
<path fill="none" stroke="#999999" stroke-width="2" d="M662.5,-125.35C662.5,-135.019 662.5,-146.85 662.5,-157.584"/>
<polygon fill="#999999" stroke="#999999" stroke-width="2" points="662.5,-167.833 658,-157.833 662,-162.833 662,-157.833 662.5,-157.833 663,-157.833 663,-162.833 667,-157.833 662.5,-167.833 662.5,-167.833"/>
</g>
<!-- java.lang.Float -->
<g id="node8" class="node"><title>java.lang.Float</title>
<g id="a_node8"><a xlink:href="../../../java/lang/Float.html" xlink:title="java.lang.Float">
<text text-anchor="middle" x="809.5" y="-101.4" font-family="DejaVuSans" font-size="12.00" fill="#e76f00">Float</text>
</a>
</g>
</g>
<!-- java.lang.Float&#45;&gt;java.lang.constant.ConstantDesc -->
<g id="edge7" class="edge"><title>java.lang.Float&#45;&gt;java.lang.constant.ConstantDesc</title>
<path fill="none" stroke="#999999" stroke-width="2" d="M780.458,-121.701C759.386,-133.454 730.507,-149.564 706.598,-162.901"/>
<polygon fill="#999999" stroke="#999999" stroke-width="2" points="697.704,-167.862 704.245,-159.061 701.827,-164.99 706.194,-162.554 706.437,-162.991 706.681,-163.427 702.314,-165.863 708.63,-166.921 697.704,-167.862 697.704,-167.862"/>
</g>
<!-- java.lang.Integer -->
<g id="node9" class="node"><title>java.lang.Integer</title>
<g id="a_node9"><a xlink:href="../../../java/lang/Integer.html" xlink:title="java.lang.Integer">
<text text-anchor="middle" x="910.5" y="-101.4" font-family="DejaVuSans" font-size="12.00" fill="#e76f00">Integer</text>
</a>
</g>
</g>
<!-- java.lang.Integer&#45;&gt;java.lang.constant.ConstantDesc -->
<g id="edge8" class="edge"><title>java.lang.Integer&#45;&gt;java.lang.constant.ConstantDesc</title>
<path fill="none" stroke="#999999" stroke-width="2" d="M874.252,-118.786C868.332,-120.899 862.254,-123.035 856.5,-125 813.926,-139.54 765.79,-155.053 728.117,-166.987"/>
<polygon fill="#999999" stroke="#999999" stroke-width="2" points="718.28,-170.097 726.458,-162.792 722.897,-168.113 727.664,-166.606 727.815,-167.082 727.966,-167.559 723.198,-169.066 729.171,-171.373 718.28,-170.097 718.28,-170.097"/>
</g>
<!-- java.lang.Long -->
<g id="node10" class="node"><title>java.lang.Long</title>
<g id="a_node10"><a xlink:href="../../../java/lang/Long.html" xlink:title="java.lang.Long">
<text text-anchor="middle" x="1011.5" y="-101.4" font-family="DejaVuSans" font-size="12.00" fill="#e76f00">Long</text>
</a>
</g>
</g>
<!-- java.lang.Long&#45;&gt;java.lang.constant.ConstantDesc -->
<g id="edge9" class="edge"><title>java.lang.Long&#45;&gt;java.lang.constant.ConstantDesc</title>
<path fill="none" stroke="#999999" stroke-width="2" d="M982.48,-118.542C976.602,-120.898 970.41,-123.18 964.5,-125 884.641,-149.587 789.916,-167.424 728.128,-177.603"/>
<polygon fill="#999999" stroke="#999999" stroke-width="2" points="718.123,-179.232 727.27,-173.184 722.978,-177.935 727.913,-177.132 727.993,-177.625 728.074,-178.119 723.139,-178.922 728.716,-182.067 718.123,-179.232 718.123,-179.232"/>
</g>
<!-- java.lang.String -->
<g id="node11" class="node"><title>java.lang.String</title>
<g id="a_node11"><a xlink:href="../../../java/lang/String.html" xlink:title="java.lang.String">
<text text-anchor="middle" x="1108.5" y="-101.4" font-family="DejaVuSans" font-size="12.00" fill="#e76f00">String</text>
</a>
</g>
</g>
<!-- java.lang.String&#45;&gt;java.lang.constant.ConstantDesc -->
<g id="edge10" class="edge"><title>java.lang.String&#45;&gt;java.lang.constant.ConstantDesc</title>
<path fill="none" stroke="#999999" stroke-width="2" d="M1076.3,-119.226C1070.45,-121.383 1064.35,-123.419 1058.5,-125 944.53,-155.831 807.724,-173.246 728.388,-181.486"/>
<polygon fill="#999999" stroke="#999999" stroke-width="2" points="718.057,-182.541 727.548,-177.049 722.98,-181.536 727.954,-181.028 728.005,-181.525 728.056,-182.023 723.082,-182.531 728.462,-186.002 718.057,-182.541 718.057,-182.541"/>
</g>
</g>
</svg>
