<?xml version="1.0" encoding="UTF-8" standalone="no"?>
<!DOCTYPE svg PUBLIC "-//W3C//DTD SVG 1.1//EN"
 "http://www.w3.org/Graphics/SVG/1.1/DTD/svg11.dtd">
<!-- Generated by graphviz version 2.38.0 (20140413.2041)
 -->
<!-- Title: G Pages: 1 -->
<svg width="444pt" height="133pt"
 viewBox="0.00 0.00 444.00 133.00" xmlns="http://www.w3.org/2000/svg" xmlns:xlink="http://www.w3.org/1999/xlink">
<g id="graph0" class="graph" transform="scale(1 1) rotate(0) translate(4 129)">
<title>G</title>
<polygon fill="white" stroke="none" points="-4,4 -4,-129 440,-129 440,4 -4,4"/>
<!-- java.lang.invoke.ConstantCallSite -->
<g id="node1" class="node"><title>java.lang.invoke.ConstantCallSite</title>
<g id="a_node1"><a xlink:href="../../../java/lang/invoke/ConstantCallSite.html" xlink:title="java.lang.invoke.ConstantCallSite">
<text text-anchor="middle" x="63" y="-17.4" font-family="DejaVuSans" font-size="12.00" fill="#e76f00">ConstantCallSite</text>
</a>
</g>
</g>
<!-- java.lang.invoke.CallSite -->
<g id="node2" class="node"><title>java.lang.invoke.CallSite</title>
<g id="a_node2"><a xlink:href="../../../java/lang/invoke/CallSite.html" xlink:title="java.lang.invoke.CallSite">
<text text-anchor="middle" x="223" y="-101.4" font-family="DejaVuSans" font-size="12.00" fill="#e76f00">CallSite</text>
</a>
</g>
</g>
<!-- java.lang.invoke.ConstantCallSite&#45;&gt;java.lang.invoke.CallSite -->
<g id="edge1" class="edge"><title>java.lang.invoke.ConstantCallSite&#45;&gt;java.lang.invoke.CallSite</title>
<path fill="none" stroke="#999999" stroke-width="2" d="M101.324,-41.141C124.196,-52.8628 153.373,-67.8161 177.422,-80.1413"/>
<polygon fill="#999999" stroke="#999999" stroke-width="2" points="186.364,-84.7241 175.412,-84.1678 181.686,-82.8886 177.237,-80.6081 177.465,-80.1631 177.693,-79.7182 182.142,-81.9987 179.517,-76.1584 186.364,-84.7241 186.364,-84.7241"/>
</g>
<!-- java.lang.invoke.MutableCallSite -->
<g id="node3" class="node"><title>java.lang.invoke.MutableCallSite</title>
<g id="a_node3"><a xlink:href="../../../java/lang/invoke/MutableCallSite.html" xlink:title="java.lang.invoke.MutableCallSite">
<text text-anchor="middle" x="223" y="-17.4" font-family="DejaVuSans" font-size="12.00" fill="#e76f00">MutableCallSite</text>
</a>
</g>
</g>
<!-- java.lang.invoke.MutableCallSite&#45;&gt;java.lang.invoke.CallSite -->
<g id="edge2" class="edge"><title>java.lang.invoke.MutableCallSite&#45;&gt;java.lang.invoke.CallSite</title>
<path fill="none" stroke="#999999" stroke-width="2" d="M223,-41.3499C223,-51.0192 223,-62.8498 223,-73.5843"/>
<polygon fill="#999999" stroke="#999999" stroke-width="2" points="223,-83.8329 218.5,-73.8328 222.5,-78.8329 222.5,-73.8329 223,-73.8329 223.5,-73.8329 223.5,-78.8329 227.5,-73.8329 223,-83.8329 223,-83.8329"/>
</g>
<!-- java.lang.invoke.VolatileCallSite -->
<g id="node4" class="node"><title>java.lang.invoke.VolatileCallSite</title>
<g id="a_node4"><a xlink:href="../../../java/lang/invoke/VolatileCallSite.html" xlink:title="java.lang.invoke.VolatileCallSite">
<text text-anchor="middle" x="378" y="-17.4" font-family="DejaVuSans" font-size="12.00" fill="#e76f00">VolatileCallSite</text>
</a>
</g>
</g>
<!-- java.lang.invoke.VolatileCallSite&#45;&gt;java.lang.invoke.CallSite -->
<g id="edge3" class="edge"><title>java.lang.invoke.VolatileCallSite&#45;&gt;java.lang.invoke.CallSite</title>
<path fill="none" stroke="#999999" stroke-width="2" d="M340.874,-41.141C319.131,-52.6438 291.505,-67.2586 268.464,-79.4479"/>
<polygon fill="#999999" stroke="#999999" stroke-width="2" points="259.556,-84.1608 266.291,-75.5069 263.742,-81.3807 268.161,-79.0426 268.395,-79.4845 268.629,-79.9265 264.209,-82.2647 270.499,-83.4622 259.556,-84.1608 259.556,-84.1608"/>
</g>
</g>
</svg>
