<?xml version="1.0" encoding="UTF-8" standalone="no"?>
<!DOCTYPE svg PUBLIC "-//W3C//DTD SVG 1.1//EN"
 "http://www.w3.org/Graphics/SVG/1.1/DTD/svg11.dtd">
<!-- Generated by graphviz version 2.38.0 (20140413.2041)
 -->
<!-- Title: java.se Pages: 1 -->
<svg width="1806pt" height="385pt"
 viewBox="0.00 0.00 1806.04 385.00" xmlns="http://www.w3.org/2000/svg" xmlns:xlink="http://www.w3.org/1999/xlink">
<g id="graph0" class="graph" transform="scale(1 1) rotate(0) translate(4 381)">
<title>java.se</title>
<polygon fill="white" stroke="none" points="-4,4 -4,-381 1802.04,-381 1802.04,4 -4,4"/>
<!-- java.logging -->
<g id="node1" class="node"><title>java.logging</title>
<text text-anchor="middle" x="258.542" y="-101.4" font-family="DejaVuSans" font-size="12.00" fill="#e76f00">java.logging</text>
</g>
<!-- java.base -->
<g id="node9" class="node"><title>java.base</title>
<text text-anchor="middle" x="529.542" y="-17.4" font-family="DejaVuSans" font-size="12.00" fill="#e76f00">java.base</text>
</g>
<!-- java.logging&#45;&gt;java.base -->
<g id="edge6" class="edge"><title>java.logging&#45;&gt;java.base</title>
<path fill="none" stroke="#dddddd" stroke-width="2" d="M309.197,-88.1726C356.924,-73.7313 428.15,-52.1796 476.607,-37.5171"/>
<polygon fill="#dddddd" stroke="#dddddd" stroke-width="2" points="486.283,-34.5893 478.015,-41.7927 481.642,-36.516 476.857,-37.9641 476.712,-37.4855 476.567,-37.007 481.353,-35.5589 475.409,-33.1784 486.283,-34.5893 486.283,-34.5893"/>
</g>
<!-- java.scripting -->
<g id="node2" class="node"><title>java.scripting</title>
<text text-anchor="middle" x="399.542" y="-101.4" font-family="DejaVuSans" font-size="12.00" fill="#e76f00">java.scripting</text>
</g>
<!-- java.scripting&#45;&gt;java.base -->
<g id="edge14" class="edge"><title>java.scripting&#45;&gt;java.base</title>
<path fill="none" stroke="#dddddd" stroke-width="2" d="M430.68,-83.859C448.318,-72.7334 470.572,-58.6966 489.497,-46.7589"/>
<polygon fill="#dddddd" stroke="#dddddd" stroke-width="2" points="498.207,-41.265 492.15,-50.4062 494.245,-44.3554 490.016,-47.023 489.749,-46.6001 489.482,-46.1772 493.711,-43.5096 487.348,-42.794 498.207,-41.265 498.207,-41.265"/>
</g>
<!-- java.xml -->
<g id="node3" class="node"><title>java.xml</title>
<text text-anchor="middle" x="529.542" y="-101.4" font-family="DejaVuSans" font-size="12.00" fill="#e76f00">java.xml</text>
</g>
<!-- java.xml&#45;&gt;java.base -->
<g id="edge34" class="edge"><title>java.xml&#45;&gt;java.base</title>
<path fill="none" stroke="#dddddd" stroke-width="2" d="M529.542,-83.6501C529.542,-73.9808 529.542,-62.1502 529.542,-51.4157"/>
<polygon fill="#dddddd" stroke="#dddddd" stroke-width="2" points="529.542,-41.1671 534.042,-51.1671 530.042,-46.1671 530.042,-51.1671 529.542,-51.1671 529.042,-51.1671 529.042,-46.1671 525.042,-51.1672 529.542,-41.1671 529.542,-41.1671"/>
</g>
<!-- java.sql -->
<g id="node4" class="node"><title>java.sql</title>
<text text-anchor="middle" x="529.542" y="-185.4" font-family="DejaVuSans" font-size="12.00" fill="#e76f00">java.sql</text>
</g>
<!-- java.sql&#45;&gt;java.logging -->
<g id="edge28" class="edge"><title>java.sql&#45;&gt;java.logging</title>
<path fill="none" stroke="#999999" stroke-width="2" d="M492.429,-176.27C447.804,-162.767 372.29,-139.918 319.163,-123.843"/>
<polygon fill="#999999" stroke="#999999" stroke-width="2" points="309.516,-120.924 320.391,-119.513 314.447,-121.893 319.232,-123.342 319.088,-123.82 318.943,-124.299 314.157,-122.851 317.784,-128.127 309.516,-120.924 309.516,-120.924"/>
</g>
<!-- java.sql&#45;&gt;java.xml -->
<g id="edge30" class="edge"><title>java.sql&#45;&gt;java.xml</title>
<path fill="none" stroke="#999999" stroke-width="2" d="M529.542,-167.65C529.542,-157.981 529.542,-146.15 529.542,-135.416"/>
<polygon fill="#999999" stroke="#999999" stroke-width="2" points="529.542,-125.167 534.042,-135.167 530.042,-130.167 530.042,-135.167 529.542,-135.167 529.042,-135.167 529.042,-130.167 525.042,-135.167 529.542,-125.167 529.542,-125.167"/>
</g>
<!-- java.transaction.xa -->
<g id="node20" class="node"><title>java.transaction.xa</title>
<text text-anchor="middle" x="100.542" y="-101.4" font-family="DejaVuSans" font-size="12.00" fill="#e76f00">java.transaction.xa</text>
</g>
<!-- java.sql&#45;&gt;java.transaction.xa -->
<g id="edge29" class="edge"><title>java.sql&#45;&gt;java.transaction.xa</title>
<path fill="none" stroke="#999999" stroke-width="2" d="M492.484,-181.112C429.92,-170.232 299.417,-147.129 189.542,-125 187.187,-124.526 184.798,-124.039 182.388,-123.543"/>
<polygon fill="#999999" stroke="#999999" stroke-width="2" points="172.389,-121.461 183.096,-119.094 177.386,-121.991 182.281,-123.01 182.179,-123.5 182.077,-123.989 177.182,-122.97 181.261,-127.905 172.389,-121.461 172.389,-121.461"/>
</g>
<!-- java.compiler -->
<g id="node5" class="node"><title>java.compiler</title>
<text text-anchor="middle" x="828.542" y="-101.4" font-family="DejaVuSans" font-size="12.00" fill="#e76f00">java.compiler</text>
</g>
<!-- java.compiler&#45;&gt;java.base -->
<g id="edge1" class="edge"><title>java.compiler&#45;&gt;java.base</title>
<path fill="none" stroke="#dddddd" stroke-width="2" d="M773.352,-88.3644C718.866,-73.4217 636.131,-50.7319 582.451,-36.0101"/>
<polygon fill="#dddddd" stroke="#dddddd" stroke-width="2" points="572.779,-33.3576 583.613,-31.6628 577.733,-34.1979 582.555,-35.5203 582.423,-36.0025 582.291,-36.4847 577.469,-35.1623 581.233,-40.3423 572.779,-33.3576 572.779,-33.3576"/>
</g>
<!-- java.instrument -->
<g id="node6" class="node"><title>java.instrument</title>
<text text-anchor="middle" x="980.542" y="-101.4" font-family="DejaVuSans" font-size="12.00" fill="#e76f00">java.instrument</text>
</g>
<!-- java.instrument&#45;&gt;java.base -->
<g id="edge5" class="edge"><title>java.instrument&#45;&gt;java.base</title>
<path fill="none" stroke="#dddddd" stroke-width="2" d="M919.403,-87.925C913.382,-86.5367 907.352,-85.2033 901.542,-84 788.773,-60.6438 655.399,-39.8841 582.939,-29.1745"/>
<polygon fill="#dddddd" stroke="#dddddd" stroke-width="2" points="572.7,-27.6683 583.248,-24.6717 577.719,-27.9013 582.666,-28.6291 582.593,-29.1238 582.52,-29.6185 577.574,-28.8907 581.938,-33.5759 572.7,-27.6683 572.7,-27.6683"/>
</g>
<!-- java.desktop -->
<g id="node7" class="node"><title>java.desktop</title>
<text text-anchor="middle" x="811.542" y="-185.4" font-family="DejaVuSans" font-size="12.00" fill="#e76f00">java.desktop</text>
</g>
<!-- java.desktop&#45;&gt;java.xml -->
<g id="edge4" class="edge"><title>java.desktop&#45;&gt;java.xml</title>
<path fill="none" stroke="#999999" stroke-width="2" d="M759.266,-173.743C713.725,-161.561 646.009,-142.972 587.542,-125 584.64,-124.108 581.663,-123.172 578.664,-122.213"/>
<polygon fill="#999999" stroke="#999999" stroke-width="2" points="569.076,-119.099 579.977,-117.908 573.986,-120.168 578.742,-121.713 578.587,-122.188 578.433,-122.664 573.677,-121.119 577.197,-126.468 569.076,-119.099 569.076,-119.099"/>
</g>
<!-- java.datatransfer -->
<g id="node10" class="node"><title>java.datatransfer</title>
<text text-anchor="middle" x="671.542" y="-101.4" font-family="DejaVuSans" font-size="12.00" fill="#e76f00">java.datatransfer</text>
</g>
<!-- java.desktop&#45;&gt;java.datatransfer -->
<g id="edge3" class="edge"><title>java.desktop&#45;&gt;java.datatransfer</title>
<path fill="none" stroke="#999999" stroke-width="2" d="M778.008,-167.859C758.842,-156.633 734.614,-142.442 714.114,-130.435"/>
<polygon fill="#999999" stroke="#999999" stroke-width="2" points="705.287,-125.265 716.19,-126.436 709.854,-127.361 714.169,-129.888 713.916,-130.319 713.663,-130.75 709.349,-128.223 711.642,-134.202 705.287,-125.265 705.287,-125.265"/>
</g>
<!-- java.management -->
<g id="node8" class="node"><title>java.management</title>
<text text-anchor="middle" x="1230.54" y="-185.4" font-family="DejaVuSans" font-size="12.00" fill="#e76f00">java.management</text>
</g>
<!-- java.management&#45;&gt;java.base -->
<g id="edge7" class="edge"><title>java.management&#45;&gt;java.base</title>
<path fill="none" stroke="#dddddd" stroke-width="2" d="M1212.79,-167.912C1189.45,-143.596 1145.94,-103.015 1099.54,-84 1006.68,-45.9432 706.52,-29.064 583.198,-23.6105"/>
<polygon fill="#dddddd" stroke="#dddddd" stroke-width="2" points="572.875,-23.1626 583.061,-19.1004 577.892,-22.8798 582.888,-23.0967 582.866,-23.5962 582.844,-24.0957 577.849,-23.8789 582.671,-28.092 572.875,-23.1626 572.875,-23.1626"/>
</g>
<!-- java.datatransfer&#45;&gt;java.base -->
<g id="edge2" class="edge"><title>java.datatransfer&#45;&gt;java.base</title>
<path fill="none" stroke="#dddddd" stroke-width="2" d="M637.529,-83.859C618.002,-72.5823 593.295,-58.3149 572.443,-46.2739"/>
<polygon fill="#dddddd" stroke="#dddddd" stroke-width="2" points="563.769,-41.265 574.679,-42.3688 568.349,-43.3324 572.679,-45.8328 572.429,-46.2658 572.179,-46.6988 567.849,-44.1984 570.179,-50.1627 563.769,-41.265 563.769,-41.265"/>
</g>
<!-- java.management.rmi -->
<g id="node11" class="node"><title>java.management.rmi</title>
<text text-anchor="middle" x="1159.54" y="-269.4" font-family="DejaVuSans" font-size="12.00" fill="#e76f00">java.management.rmi</text>
</g>
<!-- java.management.rmi&#45;&gt;java.management -->
<g id="edge8" class="edge"><title>java.management.rmi&#45;&gt;java.management</title>
<path fill="none" stroke="#999999" stroke-width="2" d="M1176.73,-251.65C1185.8,-241.175 1197.07,-228.163 1206.94,-216.757"/>
<polygon fill="#999999" stroke="#999999" stroke-width="2" points="1213.51,-209.167 1210.37,-219.673 1210.62,-213.274 1207.35,-217.054 1206.97,-216.727 1206.59,-216.4 1209.86,-212.62 1203.57,-213.781 1213.51,-209.167 1213.51,-209.167"/>
</g>
<!-- java.rmi -->
<g id="node15" class="node"><title>java.rmi</title>
<text text-anchor="middle" x="1086.54" y="-185.4" font-family="DejaVuSans" font-size="12.00" fill="#e76f00">java.rmi</text>
</g>
<!-- java.management.rmi&#45;&gt;java.rmi -->
<g id="edge9" class="edge"><title>java.management.rmi&#45;&gt;java.rmi</title>
<path fill="none" stroke="#999999" stroke-width="2" d="M1141.87,-251.65C1132.55,-241.175 1120.96,-228.163 1110.81,-216.757"/>
<polygon fill="#999999" stroke="#999999" stroke-width="2" points="1104.05,-209.167 1114.06,-213.644 1107.75,-212.569 1111.07,-216.304 1110.7,-216.636 1110.33,-216.969 1107,-213.234 1107.34,-219.628 1104.05,-209.167 1104.05,-209.167"/>
</g>
<!-- java.naming -->
<g id="node12" class="node"><title>java.naming</title>
<text text-anchor="middle" x="189.542" y="-185.4" font-family="DejaVuSans" font-size="12.00" fill="#e76f00">java.naming</text>
</g>
<!-- java.naming&#45;&gt;java.base -->
<g id="edge10" class="edge"><title>java.naming&#45;&gt;java.base</title>
<path fill="none" stroke="#dddddd" stroke-width="2" d="M138.29,-177.906C71.5365,-163.258 -31.9129,-131.874 10.5419,-84 41.1074,-49.5328 349.67,-30.4235 476.025,-23.9923"/>
<polygon fill="#dddddd" stroke="#dddddd" stroke-width="2" points="486.239,-23.4799 476.477,-28.4754 481.27,-24.2299 476.277,-24.4804 476.252,-23.981 476.226,-23.4817 481.22,-23.2311 476.026,-19.4867 486.239,-23.4799 486.239,-23.4799"/>
</g>
<!-- java.net.http -->
<g id="node13" class="node"><title>java.net.http</title>
<text text-anchor="middle" x="1387.54" y="-185.4" font-family="DejaVuSans" font-size="12.00" fill="#e76f00">java.net.http</text>
</g>
<!-- java.net.http&#45;&gt;java.base -->
<g id="edge11" class="edge"><title>java.net.http&#45;&gt;java.base</title>
<path fill="none" stroke="#dddddd" stroke-width="2" d="M1353.87,-167.855C1310.67,-143.677 1232.68,-103.443 1160.54,-84 952.284,-27.8719 693.192,-21.0491 583.066,-20.9375"/>
<polygon fill="#dddddd" stroke="#dddddd" stroke-width="2" points="572.881,-20.9463 582.877,-16.4376 577.88,-20.4419 582.88,-20.4376 582.881,-20.9376 582.881,-21.4376 577.881,-21.4419 582.885,-25.4376 572.881,-20.9463 572.881,-20.9463"/>
</g>
<!-- java.prefs -->
<g id="node14" class="node"><title>java.prefs</title>
<text text-anchor="middle" x="1453.54" y="-101.4" font-family="DejaVuSans" font-size="12.00" fill="#e76f00">java.prefs</text>
</g>
<!-- java.prefs&#45;&gt;java.base -->
<g id="edge12" class="edge"><title>java.prefs&#45;&gt;java.base</title>
<path fill="none" stroke="#dddddd" stroke-width="2" d="M1409.43,-94.1265C1391,-90.4964 1369.3,-86.5979 1349.54,-84 1061.83,-46.1781 714.101,-29.0168 583.002,-23.55"/>
<polygon fill="#dddddd" stroke="#dddddd" stroke-width="2" points="572.834,-23.1314 583.01,-19.0466 577.85,-22.8376 582.846,-23.0433 582.825,-23.5428 582.805,-24.0424 577.809,-23.8367 582.64,-28.039 572.834,-23.1314 572.834,-23.1314"/>
</g>
<!-- java.rmi&#45;&gt;java.base -->
<g id="edge13" class="edge"><title>java.rmi&#45;&gt;java.base</title>
<path fill="none" stroke="#dddddd" stroke-width="2" d="M1087.51,-167.744C1087.49,-144.029 1083.49,-104.855 1059.54,-84 1024.03,-53.0759 710.718,-31.8539 583.189,-24.4252"/>
<polygon fill="#dddddd" stroke="#dddddd" stroke-width="2" points="572.884,-23.8315 583.127,-19.9143 577.905,-23.62 582.897,-23.9076 582.868,-24.4068 582.839,-24.906 577.847,-24.6183 582.609,-28.8994 572.884,-23.8315 572.884,-23.8315"/>
</g>
<!-- java.se -->
<g id="node16" class="node"><title>java.se</title>
<text text-anchor="middle" x="529.542" y="-353.4" font-family="DejaVuSans" font-size="12.00" fill="#e76f00">java.se</text>
</g>
<!-- java.se&#45;&gt;java.scripting -->
<g id="edge21" class="edge"><title>java.se&#45;&gt;java.scripting</title>
<path fill="none" stroke="#999999" stroke-width="2" d="M565.332,-336.317C581.052,-325.805 597.88,-311.187 606.542,-293 630.798,-242.072 623.016,-209.252 584.542,-168 575.844,-158.674 513.458,-138.719 463.502,-123.852"/>
<polygon fill="#999999" stroke="#999999" stroke-width="2" points="453.696,-120.951 464.562,-119.473 458.632,-121.89 463.427,-123.308 463.285,-123.788 463.143,-124.267 458.349,-122.849 462.009,-128.103 453.696,-120.951 453.696,-120.951"/>
</g>
<!-- java.se&#45;&gt;java.compiler -->
<g id="edge15" class="edge"><title>java.se&#45;&gt;java.compiler</title>
<path fill="none" stroke="#999999" stroke-width="2" d="M565.108,-354.114C643.812,-350.27 829.031,-336.686 870.542,-293 908.958,-252.571 900.753,-220.357 881.542,-168 876.699,-154.802 867.699,-142.481 858.472,-132.327"/>
<polygon fill="#999999" stroke="#999999" stroke-width="2" points="851.437,-125.005 861.61,-129.098 855.262,-128.264 858.726,-131.869 858.365,-132.216 858.005,-132.562 854.541,-128.957 855.12,-135.333 851.437,-125.005 851.437,-125.005"/>
</g>
<!-- java.se&#45;&gt;java.instrument -->
<g id="edge17" class="edge"><title>java.se&#45;&gt;java.instrument</title>
<path fill="none" stroke="#999999" stroke-width="2" d="M565.119,-354.157C649.561,-350.281 858.943,-336.427 911.542,-293 959.523,-253.385 974.141,-177.224 978.593,-135.185"/>
<polygon fill="#999999" stroke="#999999" stroke-width="2" points="979.54,-125.029 983.092,-135.404 979.574,-130.054 979.11,-135.032 978.612,-134.986 978.114,-134.939 978.578,-129.961 974.131,-134.568 979.54,-125.029 979.54,-125.029"/>
</g>
<!-- java.se&#45;&gt;java.desktop -->
<g id="edge16" class="edge"><title>java.se&#45;&gt;java.desktop</title>
<path fill="none" stroke="#999999" stroke-width="2" d="M565.1,-353.736C638.639,-349.265 803.441,-334.716 837.542,-293 854.856,-271.82 843.547,-240.64 830.874,-218.042"/>
<polygon fill="#999999" stroke="#999999" stroke-width="2" points="825.63,-209.239 834.614,-215.527 828.618,-213.279 831.178,-217.574 830.748,-217.83 830.318,-218.086 827.759,-213.791 826.882,-220.133 825.63,-209.239 825.63,-209.239"/>
</g>
<!-- java.se&#45;&gt;java.management.rmi -->
<g id="edge18" class="edge"><title>java.se&#45;&gt;java.management.rmi</title>
<path fill="none" stroke="#999999" stroke-width="2" d="M565.084,-351.981C649.614,-343.452 869.212,-320.351 1051.54,-293 1057.02,-292.179 1062.64,-291.292 1068.31,-290.367"/>
<polygon fill="#999999" stroke="#999999" stroke-width="2" points="1078.54,-288.663 1069.42,-294.745 1073.69,-289.978 1068.76,-290.799 1068.68,-290.306 1068.59,-289.813 1073.53,-288.991 1067.94,-285.867 1078.54,-288.663 1078.54,-288.663"/>
</g>
<!-- java.se&#45;&gt;java.net.http -->
<g id="edge19" class="edge"><title>java.se&#45;&gt;java.net.http</title>
<path fill="none" stroke="#999999" stroke-width="2" d="M565.345,-355.168C693.75,-353.559 1130.3,-344.347 1258.54,-293 1300.33,-276.267 1339.32,-241.21 1363.26,-216.549"/>
<polygon fill="#999999" stroke="#999999" stroke-width="2" points="1370.2,-209.262 1366.56,-219.608 1367.11,-213.229 1363.67,-216.851 1363.3,-216.506 1362.94,-216.162 1366.39,-212.539 1360.04,-213.405 1370.2,-209.262 1370.2,-209.262"/>
</g>
<!-- java.se&#45;&gt;java.prefs -->
<g id="edge20" class="edge"><title>java.se&#45;&gt;java.prefs</title>
<path fill="none" stroke="#999999" stroke-width="2" d="M565.297,-354.866C699.965,-352.143 1176.2,-339.369 1319.54,-293 1387.86,-270.9 1422.36,-271.595 1457.54,-209 1470.17,-186.535 1467.4,-156.789 1462.52,-134.952"/>
<polygon fill="#999999" stroke="#999999" stroke-width="2" points="1460.1,-125.233 1466.89,-133.847 1461.8,-129.964 1463.01,-134.815 1462.52,-134.936 1462.04,-135.057 1460.83,-130.206 1458.15,-136.025 1460.1,-125.233 1460.1,-125.233"/>
</g>
<!-- java.security.jgss -->
<g id="node17" class="node"><title>java.security.jgss</title>
<text text-anchor="middle" x="1568.54" y="-269.4" font-family="DejaVuSans" font-size="12.00" fill="#e76f00">java.security.jgss</text>
</g>
<!-- java.se&#45;&gt;java.security.jgss -->
<g id="edge22" class="edge"><title>java.se&#45;&gt;java.security.jgss</title>
<path fill="none" stroke="#999999" stroke-width="2" d="M565.419,-354.977C691.19,-352.752 1123.59,-341.797 1476.54,-293 1482.24,-292.212 1488.11,-291.272 1494,-290.236"/>
<polygon fill="#999999" stroke="#999999" stroke-width="2" points="1503.91,-288.412 1494.89,-294.649 1499.08,-289.809 1494.16,-290.715 1494.07,-290.223 1493.98,-289.731 1498.9,-288.826 1493.26,-285.798 1503.91,-288.412 1503.91,-288.412"/>
</g>
<!-- java.security.sasl -->
<g id="node18" class="node"><title>java.security.sasl</title>
<text text-anchor="middle" x="1733.54" y="-269.4" font-family="DejaVuSans" font-size="12.00" fill="#e76f00">java.security.sasl</text>
</g>
<!-- java.se&#45;&gt;java.security.sasl -->
<g id="edge23" class="edge"><title>java.se&#45;&gt;java.security.sasl</title>
<path fill="none" stroke="#999999" stroke-width="2" d="M565.106,-355.773C704.471,-356.368 1226.59,-354.139 1650.54,-293 1653.36,-292.594 1656.22,-292.139 1659.1,-291.645"/>
<polygon fill="#999999" stroke="#999999" stroke-width="2" points="1668.96,-289.827 1659.94,-296.066 1664.13,-291.225 1659.21,-292.132 1659.12,-291.641 1659.03,-291.149 1663.95,-290.242 1658.31,-287.215 1668.96,-289.827 1668.96,-289.827"/>
</g>
<!-- java.sql.rowset -->
<g id="node19" class="node"><title>java.sql.rowset</title>
<text text-anchor="middle" x="529.542" y="-269.4" font-family="DejaVuSans" font-size="12.00" fill="#e76f00">java.sql.rowset</text>
</g>
<!-- java.se&#45;&gt;java.sql.rowset -->
<g id="edge24" class="edge"><title>java.se&#45;&gt;java.sql.rowset</title>
<path fill="none" stroke="#999999" stroke-width="2" d="M529.542,-335.65C529.542,-325.981 529.542,-314.15 529.542,-303.416"/>
<polygon fill="#999999" stroke="#999999" stroke-width="2" points="529.542,-293.167 534.042,-303.167 530.042,-298.167 530.042,-303.167 529.542,-303.167 529.042,-303.167 529.042,-298.167 525.042,-303.167 529.542,-293.167 529.542,-293.167"/>
</g>
<!-- java.xml.crypto -->
<g id="node21" class="node"><title>java.xml.crypto</title>
<text text-anchor="middle" x="759.542" y="-269.4" font-family="DejaVuSans" font-size="12.00" fill="#e76f00">java.xml.crypto</text>
</g>
<!-- java.se&#45;&gt;java.xml.crypto -->
<g id="edge25" class="edge"><title>java.se&#45;&gt;java.xml.crypto</title>
<path fill="none" stroke="#999999" stroke-width="2" d="M565.227,-342.777C599.759,-330.466 652.895,-311.522 694.879,-296.554"/>
<polygon fill="#999999" stroke="#999999" stroke-width="2" points="704.473,-293.133 696.565,-300.73 699.932,-295.283 695.222,-296.962 695.054,-296.491 694.886,-296.02 699.596,-294.341 693.543,-292.253 704.473,-293.133 704.473,-293.133"/>
</g>
<!-- java.security.jgss&#45;&gt;java.base -->
<g id="edge26" class="edge"><title>java.security.jgss&#45;&gt;java.base</title>
<path fill="none" stroke="#dddddd" stroke-width="2" d="M1569.68,-251.995C1570.77,-212.987 1566.99,-125.548 1515.54,-84 1442.74,-25.207 777.514,-21.2336 582.831,-21.3407"/>
<polygon fill="#dddddd" stroke="#dddddd" stroke-width="2" points="572.569,-21.3505 582.565,-16.8409 577.569,-20.8457 582.569,-20.8409 582.569,-21.3409 582.57,-21.8409 577.57,-21.8457 582.574,-25.8409 572.569,-21.3505 572.569,-21.3505"/>
</g>
<!-- java.security.sasl&#45;&gt;java.base -->
<g id="edge27" class="edge"><title>java.security.sasl&#45;&gt;java.base</title>
<path fill="none" stroke="#dddddd" stroke-width="2" d="M1722.5,-251.867C1698.73,-211.81 1638.43,-121.301 1559.54,-84 1470.94,-42.1062 781.172,-26.1659 582.763,-22.4204"/>
<polygon fill="#dddddd" stroke="#dddddd" stroke-width="2" points="572.591,-22.231 582.673,-17.9181 577.599,-21.8243 582.598,-21.9174 582.589,-22.4173 582.58,-22.9172 577.581,-22.8241 582.505,-26.9165 572.591,-22.231 572.591,-22.231"/>
</g>
<!-- java.sql.rowset&#45;&gt;java.sql -->
<g id="edge32" class="edge"><title>java.sql.rowset&#45;&gt;java.sql</title>
<path fill="none" stroke="#999999" stroke-width="2" d="M529.542,-251.65C529.542,-241.981 529.542,-230.15 529.542,-219.416"/>
<polygon fill="#999999" stroke="#999999" stroke-width="2" points="529.542,-209.167 534.042,-219.167 530.042,-214.167 530.042,-219.167 529.542,-219.167 529.042,-219.167 529.042,-214.167 525.042,-219.167 529.542,-209.167 529.542,-209.167"/>
</g>
<!-- java.sql.rowset&#45;&gt;java.naming -->
<g id="edge31" class="edge"><title>java.sql.rowset&#45;&gt;java.naming</title>
<path fill="none" stroke="#999999" stroke-width="2" d="M470.318,-257.217C408.772,-242.373 312.913,-219.254 250.67,-204.243"/>
<polygon fill="#999999" stroke="#999999" stroke-width="2" points="240.599,-201.814 251.375,-199.784 245.576,-202.5 250.437,-203.672 250.32,-204.158 250.203,-204.644 245.342,-203.472 249.265,-208.533 240.599,-201.814 240.599,-201.814"/>
</g>
<!-- java.transaction.xa&#45;&gt;java.base -->
<g id="edge33" class="edge"><title>java.transaction.xa&#45;&gt;java.base</title>
<path fill="none" stroke="#dddddd" stroke-width="2" d="M172.389,-87.5394C178.187,-86.318 183.96,-85.1243 189.542,-84 290.834,-63.5995 409.658,-42.3713 476.621,-30.6552"/>
<polygon fill="#dddddd" stroke="#dddddd" stroke-width="2" points="486.515,-28.9274 477.438,-35.0807 481.675,-30.2802 476.75,-31.1404 476.664,-30.6478 476.578,-30.1553 481.503,-29.2951 475.889,-26.2149 486.515,-28.9274 486.515,-28.9274"/>
</g>
<!-- java.xml.crypto&#45;&gt;java.xml -->
<g id="edge35" class="edge"><title>java.xml.crypto&#45;&gt;java.xml</title>
<path fill="none" stroke="#999999" stroke-width="2" d="M744.074,-251.959C725.566,-229.526 692.763,-192.658 658.542,-168 634.015,-150.326 603.717,-135.352 578.648,-124.496"/>
<polygon fill="#999999" stroke="#999999" stroke-width="2" points="569.32,-120.539 580.283,-120.301 574.118,-122.031 578.721,-123.983 578.526,-124.444 578.331,-124.904 573.727,-122.952 576.769,-128.587 569.32,-120.539 569.32,-120.539"/>
</g>
</g>
</svg>
