<?xml version="1.0" encoding="UTF-8" standalone="no"?>
<!DOCTYPE svg PUBLIC "-//W3C//DTD SVG 1.1//EN"
 "http://www.w3.org/Graphics/SVG/1.1/DTD/svg11.dtd">
<!-- Generated by graphviz version 2.38.0 (20140413.2041)
 -->
<!-- Title: G Pages: 1 -->
<svg width="338pt" height="133pt"
 viewBox="0.00 0.00 337.50 133.00" xmlns="http://www.w3.org/2000/svg" xmlns:xlink="http://www.w3.org/1999/xlink">
<g id="graph0" class="graph" transform="scale(1 1) rotate(0) translate(4 129)">
<title>G</title>
<polygon fill="white" stroke="none" points="-4,4 -4,-129 333.5,-129 333.5,4 -4,4"/>
<!-- java.awt.LinearGradientPaint -->
<g id="node1" class="node"><title>java.awt.LinearGradientPaint</title>
<g id="a_node1"><a xlink:href="../../java/awt/LinearGradientPaint.html" xlink:title="java.awt.LinearGradientPaint">
<text text-anchor="middle" x="73.5" y="-17.4" font-family="DejaVuSans" font-size="12.00" fill="#e76f00">LinearGradientPaint</text>
</a>
</g>
</g>
<!-- java.awt.MultipleGradientPaint -->
<g id="node2" class="node"><title>java.awt.MultipleGradientPaint</title>
<g id="a_node2"><a xlink:href="../../java/awt/MultipleGradientPaint.html" xlink:title="java.awt.MultipleGradientPaint">
<text text-anchor="middle" x="164.5" y="-101.4" font-family="DejaVuSans" font-size="12.00" fill="#e76f00">MultipleGradientPaint</text>
</a>
</g>
</g>
<!-- java.awt.LinearGradientPaint&#45;&gt;java.awt.MultipleGradientPaint -->
<g id="edge1" class="edge"><title>java.awt.LinearGradientPaint&#45;&gt;java.awt.MultipleGradientPaint</title>
<path fill="none" stroke="#999999" stroke-width="2" d="M95.5286,-41.3499C107.377,-52.0265 122.149,-65.338 134.98,-76.8995"/>
<polygon fill="#999999" stroke="#999999" stroke-width="2" points="142.674,-83.8329 132.233,-80.4817 138.625,-80.8572 134.911,-77.5101 135.245,-77.1387 135.58,-76.7673 139.295,-80.1143 138.258,-73.7957 142.674,-83.8329 142.674,-83.8329"/>
</g>
<!-- java.awt.RadialGradientPaint -->
<g id="node3" class="node"><title>java.awt.RadialGradientPaint</title>
<g id="a_node3"><a xlink:href="../../java/awt/RadialGradientPaint.html" xlink:title="java.awt.RadialGradientPaint">
<text text-anchor="middle" x="256.5" y="-17.4" font-family="DejaVuSans" font-size="12.00" fill="#e76f00">RadialGradientPaint</text>
</a>
</g>
</g>
<!-- java.awt.RadialGradientPaint&#45;&gt;java.awt.MultipleGradientPaint -->
<g id="edge2" class="edge"><title>java.awt.RadialGradientPaint&#45;&gt;java.awt.MultipleGradientPaint</title>
<path fill="none" stroke="#999999" stroke-width="2" d="M234.229,-41.3499C222.251,-52.0265 207.316,-65.338 194.344,-76.8995"/>
<polygon fill="#999999" stroke="#999999" stroke-width="2" points="186.566,-83.8329 191.037,-73.8198 189.965,-80.1328 193.698,-76.8059 194.031,-77.1791 194.363,-77.5524 190.631,-80.8793 197.025,-80.5385 186.566,-83.8329 186.566,-83.8329"/>
</g>
</g>
</svg>
