<?xml version="1.0" encoding="UTF-8" standalone="no"?>
<!DOCTYPE svg PUBLIC "-//W3C//DTD SVG 1.1//EN"
 "http://www.w3.org/Graphics/SVG/1.1/DTD/svg11.dtd">
<!-- Generated by graphviz version 2.38.0 (20140413.2041)
 -->
<!-- Title: G Pages: 1 -->
<svg width="206pt" height="133pt"
 viewBox="0.00 0.00 205.50 133.00" xmlns="http://www.w3.org/2000/svg" xmlns:xlink="http://www.w3.org/1999/xlink">
<g id="graph0" class="graph" transform="scale(1 1) rotate(0) translate(4 129)">
<title>G</title>
<polygon fill="white" stroke="none" points="-4,4 -4,-129 201.5,-129 201.5,4 -4,4"/>
<!-- java.awt.TextArea -->
<g id="node1" class="node"><title>java.awt.TextArea</title>
<g id="a_node1"><a xlink:href="../../java/awt/TextArea.html" xlink:title="java.awt.TextArea">
<text text-anchor="middle" x="40.5" y="-17.4" font-family="DejaVuSans" font-size="12.00" fill="#e76f00">TextArea</text>
</a>
</g>
</g>
<!-- java.awt.TextComponent -->
<g id="node2" class="node"><title>java.awt.TextComponent</title>
<g id="a_node2"><a xlink:href="../../java/awt/TextComponent.html" xlink:title="java.awt.TextComponent">
<text text-anchor="middle" x="98.5" y="-101.4" font-family="DejaVuSans" font-size="12.00" fill="#e76f00">TextComponent</text>
</a>
</g>
</g>
<!-- java.awt.TextArea&#45;&gt;java.awt.TextComponent -->
<g id="edge1" class="edge"><title>java.awt.TextArea&#45;&gt;java.awt.TextComponent</title>
<path fill="none" stroke="#999999" stroke-width="2" d="M54.5402,-41.3499C61.8069,-51.6236 70.7994,-64.3371 78.7541,-75.5834"/>
<polygon fill="#999999" stroke="#999999" stroke-width="2" points="84.5891,-83.8329 75.1405,-78.2673 81.2936,-80.0395 78.4062,-75.9574 78.8144,-75.6687 79.2226,-75.38 82.11,-79.4621 82.4883,-73.0701 84.5891,-83.8329 84.5891,-83.8329"/>
</g>
<!-- java.awt.TextField -->
<g id="node3" class="node"><title>java.awt.TextField</title>
<g id="a_node3"><a xlink:href="../../java/awt/TextField.html" xlink:title="java.awt.TextField">
<text text-anchor="middle" x="157.5" y="-17.4" font-family="DejaVuSans" font-size="12.00" fill="#e76f00">TextField</text>
</a>
</g>
</g>
<!-- java.awt.TextField&#45;&gt;java.awt.TextComponent -->
<g id="edge2" class="edge"><title>java.awt.TextField&#45;&gt;java.awt.TextComponent</title>
<path fill="none" stroke="#999999" stroke-width="2" d="M143.218,-41.3499C135.826,-51.6236 126.678,-64.3371 118.586,-75.5834"/>
<polygon fill="#999999" stroke="#999999" stroke-width="2" points="112.651,-83.8329 114.838,-73.0874 115.165,-79.4822 118.085,-75.4236 118.491,-75.7156 118.897,-76.0077 115.977,-80.0663 122.144,-78.3439 112.651,-83.8329 112.651,-83.8329"/>
</g>
</g>
</svg>
