<?xml version="1.0" encoding="UTF-8" standalone="no"?>
<!DOCTYPE svg PUBLIC "-//W3C//DTD SVG 1.1//EN"
 "http://www.w3.org/Graphics/SVG/1.1/DTD/svg11.dtd">
<!-- Generated by graphviz version 2.38.0 (20140413.2041)
 -->
<!-- Title: G Pages: 1 -->
<svg width="258pt" height="133pt"
 viewBox="0.00 0.00 258.00 133.00" xmlns="http://www.w3.org/2000/svg" xmlns:xlink="http://www.w3.org/1999/xlink">
<g id="graph0" class="graph" transform="scale(1 1) rotate(0) translate(4 129)">
<title>G</title>
<polygon fill="white" stroke="none" points="-4,4 -4,-129 254,-129 254,4 -4,4"/>
<!-- java.net.Inet4Address -->
<g id="node1" class="node"><title>java.net.Inet4Address</title>
<g id="a_node1"><a xlink:href="../../java/net/Inet4Address.html" xlink:title="java.net.Inet4Address">
<text text-anchor="middle" x="53.5" y="-17.4" font-family="DejaVuSans" font-size="12.00" fill="#e76f00">Inet4Address</text>
</a>
</g>
</g>
<!-- java.net.InetAddress -->
<g id="node2" class="node"><title>java.net.InetAddress</title>
<g id="a_node2"><a xlink:href="../../java/net/InetAddress.html" xlink:title="java.net.InetAddress">
<text text-anchor="middle" x="124.5" y="-101.4" font-family="DejaVuSans" font-size="12.00" fill="#e76f00">InetAddress</text>
</a>
</g>
</g>
<!-- java.net.Inet4Address&#45;&gt;java.net.InetAddress -->
<g id="edge1" class="edge"><title>java.net.Inet4Address&#45;&gt;java.net.InetAddress</title>
<path fill="none" stroke="#999999" stroke-width="2" d="M70.6871,-41.3499C79.757,-51.825 91.0231,-64.8366 100.9,-76.2433"/>
<polygon fill="#999999" stroke="#999999" stroke-width="2" points="107.471,-83.8329 97.5233,-79.2186 103.82,-80.3802 100.547,-76.6002 100.925,-76.2729 101.303,-75.9456 104.576,-79.7256 104.327,-73.3273 107.471,-83.8329 107.471,-83.8329"/>
</g>
<!-- java.net.Inet6Address -->
<g id="node3" class="node"><title>java.net.Inet6Address</title>
<g id="a_node3"><a xlink:href="../../java/net/Inet6Address.html" xlink:title="java.net.Inet6Address">
<text text-anchor="middle" x="196.5" y="-17.4" font-family="DejaVuSans" font-size="12.00" fill="#e76f00">Inet6Address</text>
</a>
</g>
</g>
<!-- java.net.Inet6Address&#45;&gt;java.net.InetAddress -->
<g id="edge2" class="edge"><title>java.net.Inet6Address&#45;&gt;java.net.InetAddress</title>
<path fill="none" stroke="#999999" stroke-width="2" d="M179.071,-41.3499C169.873,-51.825 158.448,-64.8366 148.433,-76.2433"/>
<polygon fill="#999999" stroke="#999999" stroke-width="2" points="141.769,-83.8329 144.985,-73.3493 144.692,-79.7458 147.991,-75.9886 148.367,-76.3185 148.742,-76.6484 145.443,-80.4056 151.748,-79.2876 141.769,-83.8329 141.769,-83.8329"/>
</g>
</g>
</svg>
