<?xml version="1.0" encoding="UTF-8" standalone="no"?>
<!DOCTYPE svg PUBLIC "-//W3C//DTD SVG 1.1//EN"
 "http://www.w3.org/Graphics/SVG/1.1/DTD/svg11.dtd">
<!-- Generated by graphviz version 2.38.0 (20140413.2041)
 -->
<!-- Title: G Pages: 1 -->
<svg width="462pt" height="133pt"
 viewBox="0.00 0.00 461.50 133.00" xmlns="http://www.w3.org/2000/svg" xmlns:xlink="http://www.w3.org/1999/xlink">
<g id="graph0" class="graph" transform="scale(1 1) rotate(0) translate(4 129)">
<title>G</title>
<polygon fill="white" stroke="none" points="-4,4 -4,-129 457.5,-129 457.5,4 -4,4"/>
<!-- java.lang.ref.PhantomReference -->
<g id="node1" class="node"><title>java.lang.ref.PhantomReference</title>
<g id="a_node1"><a xlink:href="../../../java/lang/ref/PhantomReference.html" xlink:title="java.lang.ref.PhantomReference">
<text text-anchor="middle" x="72" y="-17.4" font-family="DejaVuSans" font-size="12.00" fill="#e76f00">PhantomReference</text>
</a>
</g>
</g>
<!-- java.lang.ref.Reference -->
<g id="node2" class="node"><title>java.lang.ref.Reference</title>
<g id="a_node2"><a xlink:href="../../../java/lang/ref/Reference.html" xlink:title="java.lang.ref.Reference">
<text text-anchor="middle" x="237" y="-101.4" font-family="DejaVuSans" font-size="12.00" fill="#e76f00">Reference</text>
</a>
</g>
</g>
<!-- java.lang.ref.PhantomReference&#45;&gt;java.lang.ref.Reference -->
<g id="edge1" class="edge"><title>java.lang.ref.PhantomReference&#45;&gt;java.lang.ref.Reference</title>
<path fill="none" stroke="#999999" stroke-width="2" d="M111.522,-41.141C134.601,-52.6107 163.906,-67.1744 188.39,-79.3425"/>
<polygon fill="#999999" stroke="#999999" stroke-width="2" points="197.515,-83.8773 186.557,-83.4566 192.815,-82.0998 188.338,-79.8746 188.56,-79.4268 188.783,-78.9791 193.26,-81.2043 190.563,-75.397 197.515,-83.8773 197.515,-83.8773"/>
</g>
<!-- java.lang.ref.SoftReference -->
<g id="node3" class="node"><title>java.lang.ref.SoftReference</title>
<g id="a_node3"><a xlink:href="../../../java/lang/ref/SoftReference.html" xlink:title="java.lang.ref.SoftReference">
<text text-anchor="middle" x="237" y="-17.4" font-family="DejaVuSans" font-size="12.00" fill="#e76f00">SoftReference</text>
</a>
</g>
</g>
<!-- java.lang.ref.SoftReference&#45;&gt;java.lang.ref.Reference -->
<g id="edge2" class="edge"><title>java.lang.ref.SoftReference&#45;&gt;java.lang.ref.Reference</title>
<path fill="none" stroke="#999999" stroke-width="2" d="M237,-41.3499C237,-51.0192 237,-62.8498 237,-73.5843"/>
<polygon fill="#999999" stroke="#999999" stroke-width="2" points="237,-83.8329 232.5,-73.8328 236.5,-78.8329 236.5,-73.8329 237,-73.8329 237.5,-73.8329 237.5,-78.8329 241.5,-73.8329 237,-83.8329 237,-83.8329"/>
</g>
<!-- java.lang.ref.WeakReference -->
<g id="node4" class="node"><title>java.lang.ref.WeakReference</title>
<g id="a_node4"><a xlink:href="../../../java/lang/ref/WeakReference.html" xlink:title="java.lang.ref.WeakReference">
<text text-anchor="middle" x="392" y="-17.4" font-family="DejaVuSans" font-size="12.00" fill="#e76f00">WeakReference</text>
</a>
</g>
</g>
<!-- java.lang.ref.WeakReference&#45;&gt;java.lang.ref.Reference -->
<g id="edge3" class="edge"><title>java.lang.ref.WeakReference&#45;&gt;java.lang.ref.Reference</title>
<path fill="none" stroke="#999999" stroke-width="2" d="M354.874,-41.141C333.289,-52.5602 305.907,-67.0462 282.968,-79.1815"/>
<polygon fill="#999999" stroke="#999999" stroke-width="2" points="274.092,-83.8773 280.827,-75.2233 278.278,-81.0972 282.697,-78.759 282.931,-79.201 283.165,-79.6429 278.745,-81.9811 285.035,-83.1786 274.092,-83.8773 274.092,-83.8773"/>
</g>
</g>
</svg>
