<?xml version="1.0" encoding="UTF-8" standalone="no"?>
<!DOCTYPE svg PUBLIC "-//W3C//DTD SVG 1.1//EN"
 "http://www.w3.org/Graphics/SVG/1.1/DTD/svg11.dtd">
<!-- Generated by graphviz version 2.38.0 (20140413.2041)
 -->
<!-- Title: G Pages: 1 -->
<svg width="1736pt" height="217pt"
 viewBox="0.00 0.00 1735.50 217.00" xmlns="http://www.w3.org/2000/svg" xmlns:xlink="http://www.w3.org/1999/xlink">
<g id="graph0" class="graph" transform="scale(1 1) rotate(0) translate(4 213)">
<title>G</title>
<polygon fill="white" stroke="none" points="-4,4 -4,-213 1731.5,-213 1731.5,4 -4,4"/>
<!-- java.awt.desktop.AboutEvent -->
<g id="node1" class="node"><title>java.awt.desktop.AboutEvent</title>
<g id="a_node1"><a xlink:href="../../../java/awt/desktop/AboutEvent.html" xlink:title="java.awt.desktop.AboutEvent">
<text text-anchor="middle" x="49" y="-101.4" font-family="DejaVuSans" font-size="12.00" fill="#e76f00">AboutEvent</text>
</a>
</g>
</g>
<!-- java.awt.desktop.AppEvent -->
<g id="node2" class="node"><title>java.awt.desktop.AppEvent</title>
<g id="a_node2"><a xlink:href="../../../java/awt/desktop/AppEvent.html" xlink:title="java.awt.desktop.AppEvent">
<text text-anchor="middle" x="854" y="-185.4" font-family="DejaVuSans" font-size="12.00" fill="#e76f00">AppEvent</text>
</a>
</g>
</g>
<!-- java.awt.desktop.AboutEvent&#45;&gt;java.awt.desktop.AppEvent -->
<g id="edge1" class="edge"><title>java.awt.desktop.AboutEvent&#45;&gt;java.awt.desktop.AppEvent</title>
<path fill="none" stroke="#999999" stroke-width="2" d="M98.1284,-121.002C104.107,-122.531 110.164,-123.915 116,-125 369.35,-172.111 678.315,-183.764 800.553,-186.603"/>
<polygon fill="#999999" stroke="#999999" stroke-width="2" points="810.759,-186.829 800.662,-191.106 805.749,-187.218 800.75,-187.107 800.761,-186.608 800.773,-186.108 805.771,-186.219 800.861,-182.109 810.759,-186.829 810.759,-186.829"/>
</g>
<!-- java.awt.desktop.AppForegroundEvent -->
<g id="node3" class="node"><title>java.awt.desktop.AppForegroundEvent</title>
<g id="a_node3"><a xlink:href="../../../java/awt/desktop/AppForegroundEvent.html" xlink:title="java.awt.desktop.AppForegroundEvent">
<text text-anchor="middle" x="212" y="-101.4" font-family="DejaVuSans" font-size="12.00" fill="#e76f00">AppForegroundEvent</text>
</a>
</g>
</g>
<!-- java.awt.desktop.AppForegroundEvent&#45;&gt;java.awt.desktop.AppEvent -->
<g id="edge2" class="edge"><title>java.awt.desktop.AppForegroundEvent&#45;&gt;java.awt.desktop.AppEvent</title>
<path fill="none" stroke="#999999" stroke-width="2" d="M289.702,-121.876C295.882,-122.997 302.037,-124.055 308,-125 487.57,-153.461 702.335,-174.181 800.404,-182.915"/>
<polygon fill="#999999" stroke="#999999" stroke-width="2" points="810.652,-183.822 800.294,-187.423 805.627,-183.879 800.646,-183.438 800.69,-182.94 800.735,-182.442 805.715,-182.883 801.087,-178.458 810.652,-183.822 810.652,-183.822"/>
</g>
<!-- java.awt.desktop.AppHiddenEvent -->
<g id="node4" class="node"><title>java.awt.desktop.AppHiddenEvent</title>
<g id="a_node4"><a xlink:href="../../../java/awt/desktop/AppHiddenEvent.html" xlink:title="java.awt.desktop.AppHiddenEvent">
<text text-anchor="middle" x="390" y="-101.4" font-family="DejaVuSans" font-size="12.00" fill="#e76f00">AppHiddenEvent</text>
</a>
</g>
</g>
<!-- java.awt.desktop.AppHiddenEvent&#45;&gt;java.awt.desktop.AppEvent -->
<g id="edge3" class="edge"><title>java.awt.desktop.AppHiddenEvent&#45;&gt;java.awt.desktop.AppEvent</title>
<path fill="none" stroke="#999999" stroke-width="2" d="M454.363,-121.264C460.313,-122.583 466.261,-123.85 472,-125 588.736,-148.399 726.853,-169.345 800.847,-180.027"/>
<polygon fill="#999999" stroke="#999999" stroke-width="2" points="810.853,-181.465 800.315,-184.496 805.833,-181.248 800.884,-180.537 800.955,-180.042 801.026,-179.547 805.975,-180.259 801.595,-175.588 810.853,-181.465 810.853,-181.465"/>
</g>
<!-- java.awt.desktop.AppReopenedEvent -->
<g id="node5" class="node"><title>java.awt.desktop.AppReopenedEvent</title>
<g id="a_node5"><a xlink:href="../../../java/awt/desktop/AppReopenedEvent.html" xlink:title="java.awt.desktop.AppReopenedEvent">
<text text-anchor="middle" x="563" y="-101.4" font-family="DejaVuSans" font-size="12.00" fill="#e76f00">AppReopenedEvent</text>
</a>
</g>
</g>
<!-- java.awt.desktop.AppReopenedEvent&#45;&gt;java.awt.desktop.AppEvent -->
<g id="edge4" class="edge"><title>java.awt.desktop.AppReopenedEvent&#45;&gt;java.awt.desktop.AppEvent</title>
<path fill="none" stroke="#999999" stroke-width="2" d="M632.332,-125.037C684.124,-139.631 753.848,-159.278 801.17,-172.613"/>
<polygon fill="#999999" stroke="#999999" stroke-width="2" points="810.914,-175.359 800.068,-176.978 805.966,-174.484 801.153,-173.128 801.289,-172.647 801.424,-172.165 806.237,-173.521 802.509,-168.315 810.914,-175.359 810.914,-175.359"/>
</g>
<!-- java.awt.desktop.FilesEvent -->
<g id="node6" class="node"><title>java.awt.desktop.FilesEvent</title>
<g id="a_node6"><a xlink:href="../../../java/awt/desktop/FilesEvent.html" xlink:title="java.awt.desktop.FilesEvent">
<text text-anchor="middle" x="716" y="-101.4" font-family="DejaVuSans" font-size="12.00" fill="#e76f00">FilesEvent</text>
</a>
</g>
</g>
<!-- java.awt.desktop.FilesEvent&#45;&gt;java.awt.desktop.AppEvent -->
<g id="edge5" class="edge"><title>java.awt.desktop.FilesEvent&#45;&gt;java.awt.desktop.AppEvent</title>
<path fill="none" stroke="#999999" stroke-width="2" d="M749.054,-125.141C767.947,-136.367 791.829,-150.558 812.036,-162.565"/>
<polygon fill="#999999" stroke="#999999" stroke-width="2" points="820.737,-167.735 809.841,-166.495 816.183,-165.611 811.885,-163.057 812.14,-162.627 812.396,-162.197 816.694,-164.751 814.439,-158.758 820.737,-167.735 820.737,-167.735"/>
</g>
<!-- java.awt.desktop.OpenFilesEvent -->
<g id="node7" class="node"><title>java.awt.desktop.OpenFilesEvent</title>
<g id="a_node7"><a xlink:href="../../../java/awt/desktop/OpenFilesEvent.html" xlink:title="java.awt.desktop.OpenFilesEvent">
<text text-anchor="middle" x="639" y="-17.4" font-family="DejaVuSans" font-size="12.00" fill="#e76f00">OpenFilesEvent</text>
</a>
</g>
</g>
<!-- java.awt.desktop.OpenFilesEvent&#45;&gt;java.awt.desktop.FilesEvent -->
<g id="edge6" class="edge"><title>java.awt.desktop.OpenFilesEvent&#45;&gt;java.awt.desktop.FilesEvent</title>
<path fill="none" stroke="#999999" stroke-width="2" d="M657.64,-41.3499C667.476,-51.825 679.694,-64.8366 690.405,-76.2433"/>
<polygon fill="#999999" stroke="#999999" stroke-width="2" points="697.532,-83.8329 687.406,-79.6234 693.745,-80.5302 690.322,-76.8853 690.687,-76.543 691.051,-76.2008 694.474,-79.8457 693.967,-73.4626 697.532,-83.8329 697.532,-83.8329"/>
</g>
<!-- java.awt.desktop.PrintFilesEvent -->
<g id="node8" class="node"><title>java.awt.desktop.PrintFilesEvent</title>
<g id="a_node8"><a xlink:href="../../../java/awt/desktop/PrintFilesEvent.html" xlink:title="java.awt.desktop.PrintFilesEvent">
<text text-anchor="middle" x="793" y="-17.4" font-family="DejaVuSans" font-size="12.00" fill="#e76f00">PrintFilesEvent</text>
</a>
</g>
</g>
<!-- java.awt.desktop.PrintFilesEvent&#45;&gt;java.awt.desktop.FilesEvent -->
<g id="edge7" class="edge"><title>java.awt.desktop.PrintFilesEvent&#45;&gt;java.awt.desktop.FilesEvent</title>
<path fill="none" stroke="#999999" stroke-width="2" d="M774.36,-41.3499C764.524,-51.825 752.306,-64.8366 741.595,-76.2433"/>
<polygon fill="#999999" stroke="#999999" stroke-width="2" points="734.468,-83.8329 738.033,-73.4626 737.526,-79.8457 740.949,-76.2008 741.313,-76.543 741.678,-76.8853 738.255,-80.5302 744.594,-79.6234 734.468,-83.8329 734.468,-83.8329"/>
</g>
<!-- java.awt.desktop.OpenURIEvent -->
<g id="node9" class="node"><title>java.awt.desktop.OpenURIEvent</title>
<g id="a_node9"><a xlink:href="../../../java/awt/desktop/OpenURIEvent.html" xlink:title="java.awt.desktop.OpenURIEvent">
<text text-anchor="middle" x="854" y="-101.4" font-family="DejaVuSans" font-size="12.00" fill="#e76f00">OpenURIEvent</text>
</a>
</g>
</g>
<!-- java.awt.desktop.OpenURIEvent&#45;&gt;java.awt.desktop.AppEvent -->
<g id="edge8" class="edge"><title>java.awt.desktop.OpenURIEvent&#45;&gt;java.awt.desktop.AppEvent</title>
<path fill="none" stroke="#999999" stroke-width="2" d="M854,-125.35C854,-135.019 854,-146.85 854,-157.584"/>
<polygon fill="#999999" stroke="#999999" stroke-width="2" points="854,-167.833 849.5,-157.833 853.5,-162.833 853.5,-157.833 854,-157.833 854.5,-157.833 854.5,-162.833 858.5,-157.833 854,-167.833 854,-167.833"/>
</g>
<!-- java.awt.desktop.PreferencesEvent -->
<g id="node10" class="node"><title>java.awt.desktop.PreferencesEvent</title>
<g id="a_node10"><a xlink:href="../../../java/awt/desktop/PreferencesEvent.html" xlink:title="java.awt.desktop.PreferencesEvent">
<text text-anchor="middle" x="1016" y="-101.4" font-family="DejaVuSans" font-size="12.00" fill="#e76f00">PreferencesEvent</text>
</a>
</g>
</g>
<!-- java.awt.desktop.PreferencesEvent&#45;&gt;java.awt.desktop.AppEvent -->
<g id="edge9" class="edge"><title>java.awt.desktop.PreferencesEvent&#45;&gt;java.awt.desktop.AppEvent</title>
<path fill="none" stroke="#999999" stroke-width="2" d="M977.197,-125.141C954.537,-136.611 925.765,-151.174 901.726,-163.342"/>
<polygon fill="#999999" stroke="#999999" stroke-width="2" points="892.767,-167.877 899.657,-159.346 897.002,-165.173 901.463,-162.915 901.689,-163.361 901.915,-163.807 897.454,-166.065 903.721,-167.376 892.767,-167.877 892.767,-167.877"/>
</g>
<!-- java.awt.desktop.QuitEvent -->
<g id="node11" class="node"><title>java.awt.desktop.QuitEvent</title>
<g id="a_node11"><a xlink:href="../../../java/awt/desktop/QuitEvent.html" xlink:title="java.awt.desktop.QuitEvent">
<text text-anchor="middle" x="1163" y="-101.4" font-family="DejaVuSans" font-size="12.00" fill="#e76f00">QuitEvent</text>
</a>
</g>
</g>
<!-- java.awt.desktop.QuitEvent&#45;&gt;java.awt.desktop.AppEvent -->
<g id="edge10" class="edge"><title>java.awt.desktop.QuitEvent&#45;&gt;java.awt.desktop.AppEvent</title>
<path fill="none" stroke="#999999" stroke-width="2" d="M1119.4,-119.556C1113.24,-121.442 1106.97,-123.307 1101,-125 1034.51,-143.851 957.18,-162.972 907.005,-175.011"/>
<polygon fill="#999999" stroke="#999999" stroke-width="2" points="897.034,-177.397 905.713,-170.694 901.781,-175.747 906.644,-174.584 906.76,-175.07 906.876,-175.556 902.013,-176.72 907.807,-179.447 897.034,-177.397 897.034,-177.397"/>
</g>
<!-- java.awt.desktop.ScreenSleepEvent -->
<g id="node12" class="node"><title>java.awt.desktop.ScreenSleepEvent</title>
<g id="a_node12"><a xlink:href="../../../java/awt/desktop/ScreenSleepEvent.html" xlink:title="java.awt.desktop.ScreenSleepEvent">
<text text-anchor="middle" x="1311" y="-101.4" font-family="DejaVuSans" font-size="12.00" fill="#e76f00">ScreenSleepEvent</text>
</a>
</g>
</g>
<!-- java.awt.desktop.ScreenSleepEvent&#45;&gt;java.awt.desktop.AppEvent -->
<g id="edge11" class="edge"><title>java.awt.desktop.ScreenSleepEvent&#45;&gt;java.awt.desktop.AppEvent</title>
<path fill="none" stroke="#999999" stroke-width="2" d="M1242.21,-121.273C1236.06,-122.575 1229.92,-123.837 1224,-125 1111.74,-147.046 979.383,-168.257 907.329,-179.404"/>
<polygon fill="#999999" stroke="#999999" stroke-width="2" points="897.145,-180.974 906.343,-175.003 902.011,-179.718 906.952,-178.956 907.029,-179.45 907.105,-179.944 902.163,-180.706 907.715,-183.897 897.145,-180.974 897.145,-180.974"/>
</g>
<!-- java.awt.desktop.SystemSleepEvent -->
<g id="node13" class="node"><title>java.awt.desktop.SystemSleepEvent</title>
<g id="a_node13"><a xlink:href="../../../java/awt/desktop/SystemSleepEvent.html" xlink:title="java.awt.desktop.SystemSleepEvent">
<text text-anchor="middle" x="1486" y="-101.4" font-family="DejaVuSans" font-size="12.00" fill="#e76f00">SystemSleepEvent</text>
</a>
</g>
</g>
<!-- java.awt.desktop.SystemSleepEvent&#45;&gt;java.awt.desktop.AppEvent -->
<g id="edge12" class="edge"><title>java.awt.desktop.SystemSleepEvent&#45;&gt;java.awt.desktop.AppEvent</title>
<path fill="none" stroke="#999999" stroke-width="2" d="M1415.68,-121.594C1409.38,-122.828 1403.09,-123.986 1397,-125 1218.63,-154.727 1004.94,-174.828 907.345,-183.163"/>
<polygon fill="#999999" stroke="#999999" stroke-width="2" points="897.146,-184.027 906.73,-178.699 902.086,-183.107 907.068,-182.685 907.11,-183.183 907.152,-183.681 902.17,-184.103 907.49,-187.667 897.146,-184.027 897.146,-184.027"/>
</g>
<!-- java.awt.desktop.UserSessionEvent -->
<g id="node14" class="node"><title>java.awt.desktop.UserSessionEvent</title>
<g id="a_node14"><a xlink:href="../../../java/awt/desktop/UserSessionEvent.html" xlink:title="java.awt.desktop.UserSessionEvent">
<text text-anchor="middle" x="1660" y="-101.4" font-family="DejaVuSans" font-size="12.00" fill="#e76f00">UserSessionEvent</text>
</a>
</g>
</g>
<!-- java.awt.desktop.UserSessionEvent&#45;&gt;java.awt.desktop.AppEvent -->
<g id="edge13" class="edge"><title>java.awt.desktop.UserSessionEvent&#45;&gt;java.awt.desktop.AppEvent</title>
<path fill="none" stroke="#999999" stroke-width="2" d="M1592.1,-121.796C1586,-122.987 1579.9,-124.08 1574,-125 1326.46,-163.624 1027.03,-180.02 907.267,-185.364"/>
<polygon fill="#999999" stroke="#999999" stroke-width="2" points="897.259,-185.804 907.052,-180.869 902.232,-185.085 907.227,-184.865 907.249,-185.365 907.271,-185.864 902.276,-186.084 907.447,-189.861 897.259,-185.804 897.259,-185.804"/>
</g>
</g>
</svg>
