<?xml version="1.0" encoding="UTF-8" standalone="no"?>
<!DOCTYPE svg PUBLIC "-//W3C//DTD SVG 1.1//EN"
 "http://www.w3.org/Graphics/SVG/1.1/DTD/svg11.dtd">
<!-- Generated by graphviz version 2.38.0 (20140413.2041)
 -->
<!-- Title: G Pages: 1 -->
<svg width="280pt" height="133pt"
 viewBox="0.00 0.00 280.00 133.00" xmlns="http://www.w3.org/2000/svg" xmlns:xlink="http://www.w3.org/1999/xlink">
<g id="graph0" class="graph" transform="scale(1 1) rotate(0) translate(4 129)">
<title>G</title>
<polygon fill="white" stroke="none" points="-4,4 -4,-129 276,-129 276,4 -4,4"/>
<!-- java.awt.desktop.OpenFilesEvent -->
<g id="node1" class="node"><title>java.awt.desktop.OpenFilesEvent</title>
<g id="a_node1"><a xlink:href="../../../java/awt/desktop/OpenFilesEvent.html" xlink:title="java.awt.desktop.OpenFilesEvent">
<text text-anchor="middle" x="60" y="-17.4" font-family="DejaVuSans" font-size="12.00" fill="#e76f00">OpenFilesEvent</text>
</a>
</g>
</g>
<!-- java.awt.desktop.FilesEvent -->
<g id="node2" class="node"><title>java.awt.desktop.FilesEvent</title>
<g id="a_node2"><a xlink:href="../../../java/awt/desktop/FilesEvent.html" xlink:title="java.awt.desktop.FilesEvent">
<text text-anchor="middle" x="137" y="-101.4" font-family="DejaVuSans" font-size="12.00" fill="#e76f00">FilesEvent</text>
</a>
</g>
</g>
<!-- java.awt.desktop.OpenFilesEvent&#45;&gt;java.awt.desktop.FilesEvent -->
<g id="edge1" class="edge"><title>java.awt.desktop.OpenFilesEvent&#45;&gt;java.awt.desktop.FilesEvent</title>
<path fill="none" stroke="#999999" stroke-width="2" d="M78.6396,-41.3499C88.4759,-51.825 100.694,-64.8366 111.405,-76.2433"/>
<polygon fill="#999999" stroke="#999999" stroke-width="2" points="118.532,-83.8329 108.406,-79.6234 114.745,-80.5302 111.322,-76.8853 111.687,-76.543 112.051,-76.2008 115.474,-79.8457 114.967,-73.4626 118.532,-83.8329 118.532,-83.8329"/>
</g>
<!-- java.awt.desktop.PrintFilesEvent -->
<g id="node3" class="node"><title>java.awt.desktop.PrintFilesEvent</title>
<g id="a_node3"><a xlink:href="../../../java/awt/desktop/PrintFilesEvent.html" xlink:title="java.awt.desktop.PrintFilesEvent">
<text text-anchor="middle" x="214" y="-17.4" font-family="DejaVuSans" font-size="12.00" fill="#e76f00">PrintFilesEvent</text>
</a>
</g>
</g>
<!-- java.awt.desktop.PrintFilesEvent&#45;&gt;java.awt.desktop.FilesEvent -->
<g id="edge2" class="edge"><title>java.awt.desktop.PrintFilesEvent&#45;&gt;java.awt.desktop.FilesEvent</title>
<path fill="none" stroke="#999999" stroke-width="2" d="M195.36,-41.3499C185.524,-51.825 173.306,-64.8366 162.595,-76.2433"/>
<polygon fill="#999999" stroke="#999999" stroke-width="2" points="155.468,-83.8329 159.033,-73.4626 158.526,-79.8457 161.949,-76.2008 162.313,-76.543 162.678,-76.8853 159.255,-80.5302 165.594,-79.6234 155.468,-83.8329 155.468,-83.8329"/>
</g>
</g>
</svg>
