<?xml version="1.0" encoding="UTF-8" standalone="no"?>
<!DOCTYPE svg PUBLIC "-//W3C//DTD SVG 1.1//EN"
 "http://www.w3.org/Graphics/SVG/1.1/DTD/svg11.dtd">
<!-- Generated by graphviz version 2.38.0 (20140413.2041)
 -->
<!-- Title: G Pages: 1 -->
<svg width="911pt" height="217pt"
 viewBox="0.00 0.00 911.00 217.00" xmlns="http://www.w3.org/2000/svg" xmlns:xlink="http://www.w3.org/1999/xlink">
<g id="graph0" class="graph" transform="scale(1 1) rotate(0) translate(4 213)">
<title>G</title>
<polygon fill="white" stroke="none" points="-4,4 -4,-213 907,-213 907,4 -4,4"/>
<!-- java.nio.ByteBuffer -->
<g id="node1" class="node"><title>java.nio.ByteBuffer</title>
<g id="a_node1"><a xlink:href="../../java/nio/ByteBuffer.html" xlink:title="java.nio.ByteBuffer">
<text text-anchor="middle" x="833" y="-101.4" font-family="DejaVuSans" font-size="12.00" fill="#e76f00">ByteBuffer</text>
</a>
</g>
</g>
<!-- java.nio.Buffer -->
<g id="node2" class="node"><title>java.nio.Buffer</title>
<g id="a_node2"><a xlink:href="../../java/nio/Buffer.html" xlink:title="java.nio.Buffer">
<text text-anchor="middle" x="445" y="-185.4" font-family="DejaVuSans" font-size="12.00" fill="#e76f00">Buffer</text>
</a>
</g>
</g>
<!-- java.nio.ByteBuffer&#45;&gt;java.nio.Buffer -->
<g id="edge1" class="edge"><title>java.nio.ByteBuffer&#45;&gt;java.nio.Buffer</title>
<path fill="none" stroke="#999999" stroke-width="2" d="M786.669,-120.243C780.748,-121.942 774.75,-123.574 769,-125 669.397,-149.708 550.541,-170.44 488.148,-180.663"/>
<polygon fill="#999999" stroke="#999999" stroke-width="2" points="477.901,-182.33 487.048,-176.282 482.756,-181.033 487.691,-180.23 487.771,-180.724 487.851,-181.217 482.916,-182.02 488.494,-185.166 477.901,-182.33 477.901,-182.33"/>
</g>
<!-- java.nio.MappedByteBuffer -->
<g id="node3" class="node"><title>java.nio.MappedByteBuffer</title>
<g id="a_node3"><a xlink:href="../../java/nio/MappedByteBuffer.html" xlink:title="java.nio.MappedByteBuffer">
<text text-anchor="middle" x="833" y="-17.4" font-family="DejaVuSans" font-size="12.00" fill="#e76f00">MappedByteBuffer</text>
</a>
</g>
</g>
<!-- java.nio.MappedByteBuffer&#45;&gt;java.nio.ByteBuffer -->
<g id="edge2" class="edge"><title>java.nio.MappedByteBuffer&#45;&gt;java.nio.ByteBuffer</title>
<path fill="none" stroke="#999999" stroke-width="2" d="M833,-41.3499C833,-51.0192 833,-62.8498 833,-73.5843"/>
<polygon fill="#999999" stroke="#999999" stroke-width="2" points="833,-83.8329 828.5,-73.8328 832.5,-78.8329 832.5,-73.8329 833,-73.8329 833.5,-73.8329 833.5,-78.8329 837.5,-73.8329 833,-83.8329 833,-83.8329"/>
</g>
<!-- java.nio.CharBuffer -->
<g id="node4" class="node"><title>java.nio.CharBuffer</title>
<g id="a_node4"><a xlink:href="../../java/nio/CharBuffer.html" xlink:title="java.nio.CharBuffer">
<text text-anchor="middle" x="47" y="-101.4" font-family="DejaVuSans" font-size="12.00" fill="#e76f00">CharBuffer</text>
</a>
</g>
</g>
<!-- java.nio.CharBuffer&#45;&gt;java.nio.Buffer -->
<g id="edge3" class="edge"><title>java.nio.CharBuffer&#45;&gt;java.nio.Buffer</title>
<path fill="none" stroke="#999999" stroke-width="2" d="M94.0722,-120.038C100.408,-121.809 106.844,-123.515 113,-125 215.888,-149.817 338.69,-170.702 402.208,-180.867"/>
<polygon fill="#999999" stroke="#999999" stroke-width="2" points="412.251,-182.464 401.668,-185.338 407.234,-182.173 402.296,-181.388 402.375,-180.894 402.453,-180.4 407.391,-181.185 403.082,-176.45 412.251,-182.464 412.251,-182.464"/>
</g>
<!-- java.nio.DoubleBuffer -->
<g id="node5" class="node"><title>java.nio.DoubleBuffer</title>
<g id="a_node5"><a xlink:href="../../java/nio/DoubleBuffer.html" xlink:title="java.nio.DoubleBuffer">
<text text-anchor="middle" x="184" y="-101.4" font-family="DejaVuSans" font-size="12.00" fill="#e76f00">DoubleBuffer</text>
</a>
</g>
</g>
<!-- java.nio.DoubleBuffer&#45;&gt;java.nio.Buffer -->
<g id="edge4" class="edge"><title>java.nio.DoubleBuffer&#45;&gt;java.nio.Buffer</title>
<path fill="none" stroke="#999999" stroke-width="2" d="M237.763,-122.391C286.597,-137.734 357.668,-160.062 402.599,-174.179"/>
<polygon fill="#999999" stroke="#999999" stroke-width="2" points="412.324,-177.234 401.435,-178.53 407.404,-176.212 402.634,-174.714 402.784,-174.237 402.933,-173.76 407.704,-175.258 404.132,-169.943 412.324,-177.234 412.324,-177.234"/>
</g>
<!-- java.nio.FloatBuffer -->
<g id="node6" class="node"><title>java.nio.FloatBuffer</title>
<g id="a_node6"><a xlink:href="../../java/nio/FloatBuffer.html" xlink:title="java.nio.FloatBuffer">
<text text-anchor="middle" x="321" y="-101.4" font-family="DejaVuSans" font-size="12.00" fill="#e76f00">FloatBuffer</text>
</a>
</g>
</g>
<!-- java.nio.FloatBuffer&#45;&gt;java.nio.Buffer -->
<g id="edge5" class="edge"><title>java.nio.FloatBuffer&#45;&gt;java.nio.Buffer</title>
<path fill="none" stroke="#999999" stroke-width="2" d="M350.701,-125.141C367.449,-136.216 388.56,-150.176 406.558,-162.079"/>
<polygon fill="#999999" stroke="#999999" stroke-width="2" points="415.111,-167.735 404.288,-165.973 410.665,-165.394 406.495,-162.636 406.77,-162.219 407.046,-161.802 411.217,-164.56 409.253,-158.466 415.111,-167.735 415.111,-167.735"/>
</g>
<!-- java.nio.IntBuffer -->
<g id="node7" class="node"><title>java.nio.IntBuffer</title>
<g id="a_node7"><a xlink:href="../../java/nio/IntBuffer.html" xlink:title="java.nio.IntBuffer">
<text text-anchor="middle" x="445" y="-101.4" font-family="DejaVuSans" font-size="12.00" fill="#e76f00">IntBuffer</text>
</a>
</g>
</g>
<!-- java.nio.IntBuffer&#45;&gt;java.nio.Buffer -->
<g id="edge6" class="edge"><title>java.nio.IntBuffer&#45;&gt;java.nio.Buffer</title>
<path fill="none" stroke="#999999" stroke-width="2" d="M445,-125.35C445,-135.019 445,-146.85 445,-157.584"/>
<polygon fill="#999999" stroke="#999999" stroke-width="2" points="445,-167.833 440.5,-157.833 444.5,-162.833 444.5,-157.833 445,-157.833 445.5,-157.833 445.5,-162.833 449.5,-157.833 445,-167.833 445,-167.833"/>
</g>
<!-- java.nio.LongBuffer -->
<g id="node8" class="node"><title>java.nio.LongBuffer</title>
<g id="a_node8"><a xlink:href="../../java/nio/LongBuffer.html" xlink:title="java.nio.LongBuffer">
<text text-anchor="middle" x="569" y="-101.4" font-family="DejaVuSans" font-size="12.00" fill="#e76f00">LongBuffer</text>
</a>
</g>
</g>
<!-- java.nio.LongBuffer&#45;&gt;java.nio.Buffer -->
<g id="edge7" class="edge"><title>java.nio.LongBuffer&#45;&gt;java.nio.Buffer</title>
<path fill="none" stroke="#999999" stroke-width="2" d="M539.299,-125.141C522.551,-136.216 501.44,-150.176 483.442,-162.079"/>
<polygon fill="#999999" stroke="#999999" stroke-width="2" points="474.889,-167.735 480.747,-158.466 478.783,-164.56 482.954,-161.802 483.23,-162.219 483.505,-162.636 479.335,-165.394 485.712,-165.973 474.889,-167.735 474.889,-167.735"/>
</g>
<!-- java.nio.ShortBuffer -->
<g id="node9" class="node"><title>java.nio.ShortBuffer</title>
<g id="a_node9"><a xlink:href="../../java/nio/ShortBuffer.html" xlink:title="java.nio.ShortBuffer">
<text text-anchor="middle" x="702" y="-101.4" font-family="DejaVuSans" font-size="12.00" fill="#e76f00">ShortBuffer</text>
</a>
</g>
</g>
<!-- java.nio.ShortBuffer&#45;&gt;java.nio.Buffer -->
<g id="edge8" class="edge"><title>java.nio.ShortBuffer&#45;&gt;java.nio.Buffer</title>
<path fill="none" stroke="#999999" stroke-width="2" d="M652.752,-121.213C604.819,-136.507 532.749,-159.502 487.326,-173.995"/>
<polygon fill="#999999" stroke="#999999" stroke-width="2" points="477.777,-177.042 485.936,-169.715 482.389,-175.046 487.152,-173.526 487.304,-174.002 487.456,-174.479 482.692,-175.998 488.672,-178.289 477.777,-177.042 477.777,-177.042"/>
</g>
</g>
</svg>
