<?xml version="1.0" encoding="UTF-8" standalone="no"?>
<!DOCTYPE svg PUBLIC "-//W3C//DTD SVG 1.1//EN"
 "http://www.w3.org/Graphics/SVG/1.1/DTD/svg11.dtd">
<!-- Generated by graphviz version 2.38.0 (20140413.2041)
 -->
<!-- Title: G Pages: 1 -->
<svg width="230pt" height="133pt"
 viewBox="0.00 0.00 229.50 133.00" xmlns="http://www.w3.org/2000/svg" xmlns:xlink="http://www.w3.org/1999/xlink">
<g id="graph0" class="graph" transform="scale(1 1) rotate(0) translate(4 129)">
<title>G</title>
<polygon fill="white" stroke="none" points="-4,4 -4,-129 225.5,-129 225.5,4 -4,4"/>
<!-- java.awt.event.KeyEvent -->
<g id="node1" class="node"><title>java.awt.event.KeyEvent</title>
<g id="a_node1"><a xlink:href="../../../java/awt/event/KeyEvent.html" xlink:title="java.awt.event.KeyEvent">
<text text-anchor="middle" x="42" y="-17.4" font-family="DejaVuSans" font-size="12.00" fill="#e76f00">KeyEvent</text>
</a>
</g>
</g>
<!-- java.awt.event.InputEvent -->
<g id="node2" class="node"><title>java.awt.event.InputEvent</title>
<g id="a_node2"><a xlink:href="../../../java/awt/event/InputEvent.html" xlink:title="java.awt.event.InputEvent">
<text text-anchor="middle" x="106" y="-101.4" font-family="DejaVuSans" font-size="12.00" fill="#e76f00">InputEvent</text>
</a>
</g>
</g>
<!-- java.awt.event.KeyEvent&#45;&gt;java.awt.event.InputEvent -->
<g id="edge1" class="edge"><title>java.awt.event.KeyEvent&#45;&gt;java.awt.event.InputEvent</title>
<path fill="none" stroke="#999999" stroke-width="2" d="M57.4926,-41.3499C65.5897,-51.7243 75.6286,-64.5866 84.4693,-75.9138"/>
<polygon fill="#999999" stroke="#999999" stroke-width="2" points="90.6501,-83.8329 80.9499,-78.7184 87.1795,-80.1989 84.1032,-76.2573 84.4973,-75.9497 84.8915,-75.6421 87.9678,-79.5837 88.0447,-73.181 90.6501,-83.8329 90.6501,-83.8329"/>
</g>
<!-- java.awt.event.MouseEvent -->
<g id="node3" class="node"><title>java.awt.event.MouseEvent</title>
<g id="a_node3"><a xlink:href="../../../java/awt/event/MouseEvent.html" xlink:title="java.awt.event.MouseEvent">
<text text-anchor="middle" x="171" y="-17.4" font-family="DejaVuSans" font-size="12.00" fill="#e76f00">MouseEvent</text>
</a>
</g>
</g>
<!-- java.awt.event.MouseEvent&#45;&gt;java.awt.event.InputEvent -->
<g id="edge2" class="edge"><title>java.awt.event.MouseEvent&#45;&gt;java.awt.event.InputEvent</title>
<path fill="none" stroke="#999999" stroke-width="2" d="M155.265,-41.3499C147.042,-51.7243 136.846,-64.5866 127.867,-75.9138"/>
<polygon fill="#999999" stroke="#999999" stroke-width="2" points="121.59,-83.8329 124.275,-73.2009 124.304,-79.604 127.41,-75.6857 127.802,-75.9963 128.194,-76.3069 125.088,-80.2252 131.328,-78.7917 121.59,-83.8329 121.59,-83.8329"/>
</g>
</g>
</svg>
