<?xml version="1.0" encoding="UTF-8" standalone="no"?>
<!DOCTYPE svg PUBLIC "-//W3C//DTD SVG 1.1//EN"
 "http://www.w3.org/Graphics/SVG/1.1/DTD/svg11.dtd">
<!-- Generated by graphviz version 2.38.0 (20140413.2041)
 -->
<!-- Title: G Pages: 1 -->
<svg width="647pt" height="133pt"
 viewBox="0.00 0.00 647.00 133.00" xmlns="http://www.w3.org/2000/svg" xmlns:xlink="http://www.w3.org/1999/xlink">
<g id="graph0" class="graph" transform="scale(1 1) rotate(0) translate(4 129)">
<title>G</title>
<polygon fill="white" stroke="none" points="-4,4 -4,-129 643,-129 643,4 -4,4"/>
<!-- javax.swing.text.StyleConstants.CharacterConstants -->
<g id="node1" class="node"><title>javax.swing.text.StyleConstants.CharacterConstants</title>
<g id="a_node1"><a xlink:href="../../../javax/swing/text/CharacterConstants.html" xlink:title="javax.swing.text.StyleConstants.CharacterConstants">
<text text-anchor="middle" x="74" y="-17.4" font-family="DejaVuSans" font-size="12.00" fill="#e76f00">CharacterConstants</text>
</a>
</g>
</g>
<!-- javax.swing.text.StyleConstants -->
<g id="node2" class="node"><title>javax.swing.text.StyleConstants</title>
<g id="a_node2"><a xlink:href="../../../javax/swing/text/StyleConstants.html" xlink:title="javax.swing.text.StyleConstants">
<text text-anchor="middle" x="320" y="-101.4" font-family="DejaVuSans" font-size="12.00" fill="#e76f00">StyleConstants</text>
</a>
</g>
</g>
<!-- javax.swing.text.StyleConstants.CharacterConstants&#45;&gt;javax.swing.text.StyleConstants -->
<g id="edge1" class="edge"><title>javax.swing.text.StyleConstants.CharacterConstants&#45;&gt;javax.swing.text.StyleConstants</title>
<path fill="none" stroke="#999999" stroke-width="2" d="M132.611,-41.0369C168.355,-52.9518 214.204,-68.2345 251.602,-80.7007"/>
<polygon fill="#999999" stroke="#999999" stroke-width="2" points="261.413,-83.9709 250.503,-85.0776 256.511,-82.864 251.768,-81.2829 251.926,-80.8085 252.084,-80.3342 256.827,-81.9153 253.349,-76.5394 261.413,-83.9709 261.413,-83.9709"/>
</g>
<!-- javax.swing.text.StyleConstants.ColorConstants -->
<g id="node3" class="node"><title>javax.swing.text.StyleConstants.ColorConstants</title>
<g id="a_node3"><a xlink:href="../../../javax/swing/text/ColorConstants.html" xlink:title="javax.swing.text.StyleConstants.ColorConstants">
<text text-anchor="middle" x="244" y="-17.4" font-family="DejaVuSans" font-size="12.00" fill="#e76f00">ColorConstants</text>
</a>
</g>
</g>
<!-- javax.swing.text.StyleConstants.ColorConstants&#45;&gt;javax.swing.text.StyleConstants -->
<g id="edge2" class="edge"><title>javax.swing.text.StyleConstants.ColorConstants&#45;&gt;javax.swing.text.StyleConstants</title>
<path fill="none" stroke="#999999" stroke-width="2" d="M262.397,-41.3499C272.106,-51.825 284.166,-64.8366 294.738,-76.2433"/>
<polygon fill="#999999" stroke="#999999" stroke-width="2" points="301.772,-83.8329 291.674,-79.5575 298.006,-80.5056 294.608,-76.8384 294.974,-76.4986 295.341,-76.1587 298.74,-79.8258 298.275,-73.4396 301.772,-83.8329 301.772,-83.8329"/>
</g>
<!-- javax.swing.text.StyleConstants.FontConstants -->
<g id="node4" class="node"><title>javax.swing.text.StyleConstants.FontConstants</title>
<g id="a_node4"><a xlink:href="../../../javax/swing/text/FontConstants.html" xlink:title="javax.swing.text.StyleConstants.FontConstants">
<text text-anchor="middle" x="396" y="-17.4" font-family="DejaVuSans" font-size="12.00" fill="#e76f00">FontConstants</text>
</a>
</g>
</g>
<!-- javax.swing.text.StyleConstants.FontConstants&#45;&gt;javax.swing.text.StyleConstants -->
<g id="edge3" class="edge"><title>javax.swing.text.StyleConstants.FontConstants&#45;&gt;javax.swing.text.StyleConstants</title>
<path fill="none" stroke="#999999" stroke-width="2" d="M377.603,-41.3499C367.894,-51.825 355.834,-64.8366 345.262,-76.2433"/>
<polygon fill="#999999" stroke="#999999" stroke-width="2" points="338.228,-83.8329 341.725,-73.4396 341.26,-79.8258 344.659,-76.1587 345.026,-76.4986 345.392,-76.8384 341.994,-80.5056 348.326,-79.5575 338.228,-83.8329 338.228,-83.8329"/>
</g>
<!-- javax.swing.text.StyleConstants.ParagraphConstants -->
<g id="node5" class="node"><title>javax.swing.text.StyleConstants.ParagraphConstants</title>
<g id="a_node5"><a xlink:href="../../../javax/swing/text/ParagraphConstants.html" xlink:title="javax.swing.text.StyleConstants.ParagraphConstants">
<text text-anchor="middle" x="564" y="-17.4" font-family="DejaVuSans" font-size="12.00" fill="#e76f00">ParagraphConstants</text>
</a>
</g>
</g>
<!-- javax.swing.text.StyleConstants.ParagraphConstants&#45;&gt;javax.swing.text.StyleConstants -->
<g id="edge4" class="edge"><title>javax.swing.text.StyleConstants.ParagraphConstants&#45;&gt;javax.swing.text.StyleConstants</title>
<path fill="none" stroke="#999999" stroke-width="2" d="M505.866,-41.0369C470.412,-52.9518 424.936,-68.2345 387.842,-80.7007"/>
<polygon fill="#999999" stroke="#999999" stroke-width="2" points="378.111,-83.9709 386.157,-76.5197 382.691,-81.9041 387.431,-80.3113 387.59,-80.7852 387.749,-81.2592 383.01,-82.852 389.024,-85.0508 378.111,-83.9709 378.111,-83.9709"/>
</g>
</g>
</svg>
